<svg xmlns="http://www.w3.org/2000/svg" xmlns:xlink="http://www.w3.org/1999/xlink" xmlns:lucid="lucid" width="692" height="1294.8"><g transform="translate(-108 -80)" lucid:page-tab-id="YZlhaDcNxf9i"><path d="M340 160c0 33.14-26.86 60-60 60s-60-26.86-60-60 26.86-60 60-60 60 26.86 60 60z" stroke="#494949" stroke-width="2" fill="#fff"/><use xlink:href="#a" transform="matrix(1,0,0,1,225,105) translate(15.024999999999999 48.775)"/><use xlink:href="#b" transform="matrix(1,0,0,1,225,105) translate(43 70.375)"/><path d="M320 260h60v60h-60z" stroke="#494949" stroke-width="2" fill="#fff"/><use xlink:href="#c" transform="matrix(1,0,0,1,325,265) translate(14 30.025)"/><path d="M280 222v68h20.5" stroke="#494949" stroke-width="2" fill="none"/><path d="M280 221l1-.03v1.06h-2v-1.07z" fill="#494949"/><path d="M315.76 290l-14.26 4.64v-9.28z" stroke="#494949" stroke-width="2" fill="#494949"/><path d="M320 500c0 33.14-26.86 60-60 60s-60-26.86-60-60 26.86-60 60-60 60 26.86 60 60z" stroke="#494949" stroke-width="2" fill="#fff"/><use xlink:href="#a" transform="matrix(1,0,0,1,205,445) translate(15.024999999999999 48.775)"/><use xlink:href="#b" transform="matrix(1,0,0,1,205,445) translate(43 70.375)"/><path d="M320 620h60v60h-60z" stroke="#494949" stroke-width="2" fill="#fff"/><use xlink:href="#d" transform="matrix(1,0,0,1,325,625) translate(14 30.025)"/><path d="M260 562v88h40.5" stroke="#494949" stroke-width="2" fill="none"/><path d="M260 561l1-.03v1.06h-2v-1.07z" fill="#494949"/><path d="M315.76 650l-14.26 4.64v-9.28z" stroke="#494949" stroke-width="2" fill="#494949"/><path d="M320 500c0 33.14-26.86 60-60 60s-60-26.86-60-60 26.86-60 60-60 60 26.86 60 60z" stroke="#494949" stroke-width="2" fill="#fff"/><use xlink:href="#a" transform="matrix(1,0,0,1,205,445) translate(15.024999999999999 48.775)"/><use xlink:href="#b" transform="matrix(1,0,0,1,205,445) translate(43 70.375)"/><path d="M681.6 500c0 33.14-26.86 60-60 60s-60-26.86-60-60 26.86-60 60-60 60 26.86 60 60z" stroke="#494949" stroke-width="2" fill="#fff"/><use xlink:href="#e" transform="matrix(1,0,0,1,566.5999999999999,445) translate(43 59.0875)"/><path d="M680 620h60v60h-60z" stroke="#494949" stroke-width="2" fill="#fff"/><use xlink:href="#c" transform="matrix(1,0,0,1,685,625) translate(14 30.025)"/><path d="M621.6 562v88h38.9" stroke="#494949" stroke-width="2" fill="none"/><path d="M621.6 561l1-.03v1.06h-2v-1.07z" fill="#494949"/><path d="M675.76 650l-14.26 4.64v-9.28z" stroke="#494949" stroke-width="2" fill="#494949"/><path d="M322 500h220.1" stroke="#494949" stroke-width="2" fill="none"/><path d="M322.03 501h-1.07l.04-1-.03-1h1.06z" fill="#494949"/><path d="M557.36 500l-14.26 4.64v-9.28z" stroke="#494949" stroke-width="2" fill="#494949"/><path d="M709.98 682l-.05 2.57-.22 3.45-.34 3.36-.5 3.28-.6 3.2-.74 3.17-.87 3.1-1 3.06-1.12 3.02-1.26 3-1.4 3-1.57 2.97-1.72 2.97-1.9 2.97-2.06 3-2.28 3-2.5 3-2.74 3.06-3 3.07-3.32 3.1-3.64 3.14-4 3.18-4.42 3.2-4.87 3.24-5.38 3.26-5.95 3.27-6.57 3.26-7.27 3.24-8.03 3.18-8.84 3.08-9.7 2.92-10.6 2.72-11.47 2.43-12.3 2.08-13.06 1.65-13.63 1.14-14 .6h-14.12l-14-.6-13.62-1.14-13.05-1.65-12.3-2.08-11.48-2.44-10.6-2.7-9.7-2.94-8.84-3.1-8.02-3.16-7.26-3.24-6.58-3.26-5.95-3.27-5.36-3.25-4.87-3.24-4.42-3.2-4-3.17-3.64-3.13-3.3-3.1-3-3.08-2.75-3.05-2.5-3.03-2.27-3-2.08-2.98-1.9-2.98-1.7-2.97-1.56-3-1.4-2.98-1.27-3-1.13-3.04-1-3.06-.86-3.1-.4-1.68" fill="none"/><path d="M709.98 682l-.05 2.57-.1 1.4m-.84 7.88l-.13.8-.6 3.22-.75 3.16-.16.57m-2.43 7.55l-.4 1.07-1.26 3-1.4 3-.1.2m-3.9 6.9l-1.18 1.82-2.08 3-1.3 1.68m-5.06 6.1l-1.16 1.28-3 3.07-1.4 1.3m-5.94 5.25l-3.62 2.86-2.68 1.95m-6.56 4.46l-.05.02-5.38 3.26-1.38.76m-7.02 3.72l-4.13 2.05-3.03 1.36m-7.3 3.1l-4.97 1.96-2.44.85m-7.5 2.56l-7.6 2.3m-7.66 2l-3.93 1-3.78.8m-7.76 1.66l-7.82 1.3M574.3 786l-7.87 1m-7.9.73l-7.5.64-.4.02m-7.92.33l-5.65.23h-2.27m-7.93 0h-3.93l-4-.17m-7.92-.33l-2.08-.1-5.83-.48m-7.9-.67l-7.88-1m-7.85-1.1l-7.82-1.32m-7.77-1.58l-5.4-1.15-2.33-.6m-7.7-1.96l-.57-.15-7-2.12m-7.54-2.5l-4-1.4-3.44-1.35m-7.32-3.03l-4.54-2.02-2.66-1.3m-7.03-3.67l-2.84-1.56-4-2.43m-6.63-4.35l-4.02-2.92-2.33-1.85m-6.03-5.14l-2.6-2.44-3-3.07-.06-.07m-5.18-6l-2.28-3-2.08-3-.28-.43m-4.02-6.84l-.86-1.65-1.4-2.98-1.08-2.55m-2.58-7.5l-.6-2.15-.4-1.68" stroke="#494949" stroke-width="2" fill="none"/><path d="M710.98 682.05l-2-.04.02-1h2z" fill="#494949"/><path d="M350.37 684.22l6.2 13.65-9.2 1.04z" stroke="#494949" stroke-width="2" fill="#494949"/><path d="M496.6 457h60v20h-60z" stroke="#000" stroke-opacity="0" stroke-width="2" fill="#fff" fill-opacity="0"/><use xlink:href="#f" transform="matrix(1,0,0,1,501.5999999999999,462) translate(11.5 14.4)"/><path d="M320 457h20v26h-20z" stroke="#000" stroke-opacity="0" stroke-width="2" fill="#fff" fill-opacity="0"/><use xlink:href="#g" transform="matrix(1,0,0,1,325,462) translate(0 14.4)"/><path d="M260 622h60v20h-60z" stroke="#000" stroke-opacity="0" stroke-width="2" fill="#fff" fill-opacity="0"/><use xlink:href="#f" transform="matrix(1,0,0,1,265,627) translate(11.5 14.4)"/><path d="M660 1158h60v20h-60z" stroke="#000" stroke-opacity="0" stroke-width="2" fill="#fff" fill-opacity="0"/><use xlink:href="#f" transform="matrix(1,0,0,1,665,1163) translate(11.5 14.4)"/><path d="M710 680h20v26h-20z" stroke="#000" stroke-opacity="0" stroke-width="2" fill="#fff" fill-opacity="0"/><use xlink:href="#g" transform="matrix(1,0,0,1,715,685) translate(0 14.4)"/><path d="M360 680h20v26h-20z" stroke="#000" stroke-opacity="0" stroke-width="2" fill="#fff" fill-opacity="0"/><use xlink:href="#g" transform="matrix(1,0,0,1,365,685) translate(0 14.4)"/><path d="M403.4 1030c0 38.66-31.34 70-70 70s-70-31.34-70-70 31.34-70 70-70 70 31.34 70 70z" stroke="#fff" stroke-width="2" fill="#333"/><path d="M393.4 1030c0 33.14-26.86 60-60 60s-60-26.86-60-60 26.86-60 60-60 60 26.86 60 60z" stroke="#fff" stroke-width="2" fill="#666"/><path d="M225.7 1220c0 22.1-17.9 40-40 40-22.08 0-40-17.9-40-40s17.92-40 40-40c22.1 0 40 17.9 40 40z" stroke="#fff" stroke-width="2" fill="#333"/><path d="M220 1220c0 18.94-15.35 34.3-34.3 34.3-18.92 0-34.27-15.36-34.27-34.3 0-18.94 15.35-34.3 34.28-34.3 18.95 0 34.3 15.36 34.3 34.3z" stroke="#fff" stroke-width="2" fill="#666"/><path d="M740 1030c0 38.66-31.34 70-70 70s-70-31.34-70-70 31.34-70 70-70 70 31.34 70 70z" stroke="#fff" stroke-width="2" fill="#333"/><path d="M730 1030c0 33.14-26.86 60-60 60s-60-26.86-60-60 26.86-60 60-60 60 26.86 60 60z" stroke="#fff" stroke-width="2" fill="#666"/><path d="M405.4 1030h185.1" stroke="#494949" stroke-width="2" fill="none"/><path d="M405.43 1031h-1.07l.04-1-.03-1h1.06z" fill="#494949"/><path d="M605.76 1030l-14.26 4.64v-9.28z" stroke="#494949" stroke-width="2" fill="#494949"/><path d="M540 1003h60v20h-60z" stroke="#000" stroke-opacity="0" stroke-width="2" fill="#fff" fill-opacity="0"/><use xlink:href="#f" transform="matrix(1,0,0,1,545,1008) translate(11.5 14.4)"/><path d="M403.4 1000h20v26h-20z" stroke="#000" stroke-opacity="0" stroke-width="2" fill="#fff" fill-opacity="0"/><use xlink:href="#g" transform="matrix(1,0,0,1,408.4000000000001,1005) translate(0 14.4)"/><path d="M261.4 1030h-75.7v136.2" stroke="#494949" stroke-width="2" fill="none"/><path d="M262.4 1030l.03 1h-1.06v-2h1.07z" fill="#494949"/><path d="M185.7 1181.48l-4.62-14.27h9.27z" stroke="#494949" stroke-width="2" fill="#494949"/><path d="M128 1158h60v20h-60z" stroke="#000" stroke-opacity="0" stroke-width="2" fill="#fff" fill-opacity="0"/><use xlink:href="#f" transform="matrix(1,0,0,1,133,1163) translate(11.5 14.4)"/><path d="M200 1000h60v20h-60z" stroke="#000" stroke-opacity="0" stroke-width="2" fill="#fff" fill-opacity="0"/><use xlink:href="#h" transform="matrix(1,0,0,1,205,1005) translate(10 14.4)"/><path d="M380 1140h100v94.8H380z" stroke="#494949" stroke-width="2" fill="#fff"/><use xlink:href="#i" transform="matrix(1,0,0,1,385,1145) translate(8.549999999999997 46.275)"/><use xlink:href="#j" transform="matrix(1,0,0,1,385,1145) translate(35.55 46.275)"/><path d="M333.4 1102v85.4h27.1" stroke="#494949" stroke-width="2" fill="none"/><path d="M333.4 1101l1-.03v1.06h-2v-1.07z" fill="#494949"/><path d="M375.76 1187.4l-14.26 4.64v-9.28z" stroke="#494949" stroke-width="2" fill="#494949"/><path d="M240 1280h60v74.8h-60z" stroke="#494949" stroke-width="2" fill="#fff"/><use xlink:href="#k" transform="matrix(1,0,0,1,245,1285) translate(14 24.55625)"/><use xlink:href="#l" transform="matrix(1,0,0,1,245,1285) translate(2.049999999999997 46.15625)"/><path d="M185.7 1262v55.4h34.8" stroke="#494949" stroke-width="2" fill="none"/><path d="M185.7 1261l1-.03v1.06h-2v-1.1z" fill="#494949"/><path d="M235.76 1317.4l-14.26 4.64v-9.28z" stroke="#494949" stroke-width="2" fill="#494949"/><path d="M429.98 1236.8l-.05 2.36-.2 3.2-.32 3.04-.42 2.92-.54 2.8-.63 2.72-.72 2.62-.83 2.54-.92 2.48-1.02 2.42-1.1 2.36-1.22 2.33-1.32 2.27-1.43 2.26-1.55 2.23-1.68 2.2-1.82 2.2-1.96 2.2-2.14 2.17-2.3 2.17-2.53 2.17-2.74 2.18-2.98 2.17-3.27 2.17-3.6 2.16-3.93 2.17-4.35 2.16-4.8 2.12-5.32 2.1-5.9 2.05-6.52 1.97-7.25 1.86-8.02 1.7-8.83 1.5-9.64 1.2-8.6.73" fill="none"/><path d="M429.98 1236.8l-.05 2.36-.1 1.83m-1.04 8.3l-.36 1.83-.63 2.7-.72 2.63-.32.98m-3.08 7.8l-.48 1.02-1.22 2.33-1.32 2.27-1.06 1.68m-5 6.72l-.42.5-1.96 2.18-2.14 2.18-1.27 1.2m-6.4 5.4l-2.88 2.1-3.27 2.16-.77.46m-7.3 4.13l-3.8 1.9-3.78 1.66m-7.8 3.07l-4.44 1.54-3.53 1.07m-8.1 2.2l-2.15.56-6.02 1.28m-8.25 1.48l-2.57.43-5.73.72m-8.34.86l-4.17.35" stroke="#494949" stroke-width="2" fill="none"/><path d="M430.98 1236.85l-2-.04.02-1h2z" fill="#494949"/><path d="M304.23 1317.28l14.1-5.15.33 9.27z" stroke="#494949" stroke-width="2" fill="#494949"/><path d="M720 1157.4h60v60h-60z" stroke="#494949" stroke-width="2" fill="#fff"/><use xlink:href="#c" transform="matrix(1,0,0,1,725,1162.4) translate(14 30.025)"/><path d="M670 1102v85.4h30.5" stroke="#494949" stroke-width="2" fill="none"/><path d="M670 1101l1-.03v1.06h-2v-1.07z" fill="#494949"/><path d="M715.76 1187.4l-14.26 4.64v-9.28z" stroke="#494949" stroke-width="2" fill="#494949"/><path d="M620 622h60v20h-60z" stroke="#000" stroke-opacity="0" stroke-width="2" fill="#fff" fill-opacity="0"/><use xlink:href="#f" transform="matrix(1,0,0,1,625,627) translate(11.5 14.4)"/><path d="M749.98 1219.4l-.07 3.22-.2 3.6-.33 3.08-.4 2.7-.45 2.37-.5 2.1-.52 1.9-.55 1.68-.57 1.54-.6 1.4-.6 1.27-.6 1.2-.64 1.08-.65 1.02-.67.95-.68.9-.7.83-.7.78-.72.75-.75.7-.78.67-.8.63-.83.6-.86.58-.9.55-.94.52-1 .5-1.04.46-1.1.44-1.2.42-1.26.38-1.36.35-1.47.3-1.6.28-1.76.22-1.94.16-2.16.1h-2.42l-2.75-.13-3.17-.26-3.7-.47-4.42-.75-5.4-1.16-6.82-1.76-9.13-2.76-13.53-4.74-29.1-11.67-70.56-29.08-19.54-6.83-14.47-4.4-11.62-2.98-9.73-2.07-8.35-1.42-3.9-.5" fill="none"/><path d="M749.98 1219.4l-.07 3.22-.04.8m-.8 8l-.1.58-.44 2.37-.5 2.1-.52 1.9-.28.86m-3.28 7.32l-.65 1.02-.67.95-.68.9-.7.83-.7.78-.72.75-.75.7-.26.22m-6.8 4.24l-.1.04-1.1.44-1.2.42-1.26.38-1.36.35-1.47.3-1.23.22m-8 .52h-.65l-2.75-.12-3.17-.26-1.45-.2m-7.93-1.3l-4.14-.88-3.67-.94m-7.73-2.2l-4.55-1.38-3.1-1.1m-7.6-2.65l-2.83-1-4.66-1.87m-7.46-3l-7.46-2.98m-7.47-3l-2.06-.82-5.37-2.22m-7.43-3.05l-7.43-3.06m-7.43-3.08l-7.43-3.06m-7.42-3.06l-7.44-3.06m-7.43-3.07l-7.42-3.06m-7.47-2.96l-7.57-2.65m-7.6-2.67l-2.6-.9-5.05-1.54m-7.7-2.34l-1.73-.53-6.02-1.55m-7.8-1.9l-7.53-1.6-.34-.07m-7.93-1.34h-.08l-3.9-.5" stroke="#494949" stroke-width="2" fill="none"/><path d="M750.98 1219.45l-2-.04.02-1h2z" fill="#494949"/><path d="M484.23 1187.62l14.55-3.66-.63 9.25z" stroke="#494949" stroke-width="2" fill="#494949"/><path d="M293 1000h80v60h-80z" stroke="#000" stroke-opacity="0" stroke-width="2" fill="#fff" fill-opacity="0"/><g><use xlink:href="#m" transform="matrix(1,0,0,1,298,1005) translate(-0.42500000000000426 17.799999999999997)"/><use xlink:href="#n" transform="matrix(1,0,0,1,298,1005) translate(12.049999999999997 39.4)"/></g><path d="M145.7 1194h80v60h-80z" stroke="#000" stroke-opacity="0" stroke-width="2" fill="#fff" fill-opacity="0"/><g><use xlink:href="#o" transform="matrix(1,0,0,1,150.71428571428572,1199) translate(12.049999999999997 17.525)"/><use xlink:href="#p" transform="matrix(1,0,0,1,150.71428571428572,1199) translate(18.025 39.125)"/></g><defs><path fill="#494949" d="M18-100v-36l175-74v27L42-118l151 64v27" id="q"/><path fill="#494949" d="M233-177c-1 41-23 64-60 70L243 0h-38l-65-103H63V0H30v-248c88 3 205-21 203 71zM63-129c60-2 137 13 137-47 0-61-80-42-137-45v92" id="r"/><path fill="#494949" d="M100-194c62-1 85 37 85 99 1 63-27 99-86 99S16-35 15-95c0-66 28-99 85-99zM99-20c44 1 53-31 53-75 0-43-8-75-51-75s-53 32-53 75 10 74 51 75" id="s"/><path fill="#494949" d="M59-47c-2 24 18 29 38 22v24C64 9 27 4 27-40v-127H5v-23h24l9-43h21v43h35v23H59v120" id="t"/><path fill="#494949" d="M18-27v-27l151-64-151-65v-27l175 74v36" id="u"/><g id="a"><use transform="matrix(0.05,0,0,0.05,0,0)" xlink:href="#q"/><use transform="matrix(0.05,0,0,0.05,10.5,0)" xlink:href="#q"/><use transform="matrix(0.05,0,0,0.05,21,0)" xlink:href="#r"/><use transform="matrix(0.05,0,0,0.05,33.95,0)" xlink:href="#s"/><use transform="matrix(0.05,0,0,0.05,43.95,0)" xlink:href="#s"/><use transform="matrix(0.05,0,0,0.05,53.95,0)" xlink:href="#t"/><use transform="matrix(0.05,0,0,0.05,58.95,0)" xlink:href="#u"/><use transform="matrix(0.05,0,0,0.05,69.45,0)" xlink:href="#u"/></g><path fill="#494949" d="M140-251c81 0 123 46 123 126C263-46 219 4 140 4 59 4 17-45 17-125s42-126 123-126zm0 227c63 0 89-41 89-101s-29-99-89-99c-61 0-89 39-89 99S79-25 140-24" id="v"/><path fill="#494949" d="M27 0v-27h64v-190l-56 39v-29l58-41h29v221h61V0H27" id="w"/><g id="b"><use transform="matrix(0.05,0,0,0.05,0,0)" xlink:href="#v"/><use transform="matrix(0.05,0,0,0.05,14,0)" xlink:href="#w"/></g><path fill="#494949" d="M30 0v-248h187v28H63v79h144v27H63v87h162V0H30" id="x"/><g id="c"><use transform="matrix(0.05,0,0,0.05,0,0)" xlink:href="#x"/><use transform="matrix(0.05,0,0,0.05,12,0)" xlink:href="#w"/></g><path fill="#494949" d="M205 0l-28-72H64L36 0H1l101-248h38L239 0h-34zm-38-99l-47-123c-12 45-31 82-46 123h93" id="y"/><g id="d"><use transform="matrix(0.05,0,0,0.05,0,0)" xlink:href="#y"/><use transform="matrix(0.05,0,0,0.05,12,0)" xlink:href="#w"/></g><path fill="#494949" d="M101-251c82-7 93 87 43 132L82-64C71-53 59-42 53-27h129V0H18c2-99 128-94 128-182 0-28-16-43-45-43s-46 15-49 41l-32-3c6-41 34-60 81-64" id="z"/><g id="e"><use transform="matrix(0.05,0,0,0.05,0,0)" xlink:href="#v"/><use transform="matrix(0.05,0,0,0.05,14,0)" xlink:href="#z"/></g><path fill="#494949" d="M23 0v-37h61v-169l-59 37v-38l62-41h46v211h57V0H23" id="A"/><path fill="#494949" d="M24 0v-54h51V0H24" id="B"/><path fill="#494949" d="M86-200l42-18 12 35-44 11 32 37-32 21-26-44-26 44-32-21 33-37-44-11 12-35 42 18-3-48h38" id="C"/><g id="f"><use transform="matrix(0.05,0,0,0.05,0,0)" xlink:href="#A"/><use transform="matrix(0.05,0,0,0.05,10,0)" xlink:href="#B"/><use transform="matrix(0.05,0,0,0.05,15,0)" xlink:href="#B"/><use transform="matrix(0.05,0,0,0.05,20,0)" xlink:href="#C"/></g><use transform="matrix(0.05,0,0,0.05,0,0)" xlink:href="#A" id="g"/><path fill="#494949" d="M101-251c68 0 84 54 84 127C185-50 166 4 99 4S15-52 14-124c-1-75 17-127 87-127zm-1 216c37-5 36-46 36-89s4-89-36-89c-39 0-36 45-36 89 0 43-3 85 36 89" id="D"/><g id="h"><use transform="matrix(0.05,0,0,0.05,0,0)" xlink:href="#D"/><use transform="matrix(0.05,0,0,0.05,10,0)" xlink:href="#B"/><use transform="matrix(0.05,0,0,0.05,15,0)" xlink:href="#B"/><use transform="matrix(0.05,0,0,0.05,20,0)" xlink:href="#A"/></g><g id="i"><use transform="matrix(0.05,0,0,0.05,0,0)" xlink:href="#y"/><use transform="matrix(0.05,0,0,0.05,12,0)" xlink:href="#w"/></g><path fill="#494949" d="M87 75C49 33 22-17 22-94c0-76 28-126 65-167h31c-38 41-64 92-64 168S80 34 118 75H87" id="E"/><path fill="#494949" d="M0 4l72-265h28L28 4H0" id="F"/><path fill="#494949" d="M85-194c31 0 48 13 60 33l-1-100h32l1 261h-30c-2-10 0-23-3-31C134-8 116 4 85 4 32 4 16-35 15-94c0-66 23-100 70-100zm9 24c-40 0-46 34-46 75 0 40 6 74 45 74 42 0 51-32 51-76 0-42-9-74-50-73" id="G"/><path fill="#494949" d="M141-36C126-15 110 5 73 4 37 3 15-17 15-53c-1-64 63-63 125-63 3-35-9-54-41-54-24 1-41 7-42 31l-33-3c5-37 33-52 76-52 45 0 72 20 72 64v82c-1 20 7 32 28 27v20c-31 9-61-2-59-35zM48-53c0 20 12 33 32 33 41-3 63-29 60-74-43 2-92-5-92 41" id="H"/><path fill="#494949" d="M179-190L93 31C79 59 56 82 12 73V49c39 6 53-20 64-50L1-190h34L92-34l54-156h33" id="I"/><path fill="#494949" d="M33-261c38 41 65 92 65 168S71 34 33 75H2C39 34 66-17 66-93S39-220 2-261h31" id="J"/><g id="j"><use transform="matrix(0.05,0,0,0.05,0,0)" xlink:href="#E"/><use transform="matrix(0.05,0,0,0.05,5.95,0)" xlink:href="#F"/><use transform="matrix(0.05,0,0,0.05,10.95,0)" xlink:href="#G"/><use transform="matrix(0.05,0,0,0.05,20.95,0)" xlink:href="#H"/><use transform="matrix(0.05,0,0,0.05,30.950000000000003,0)" xlink:href="#I"/><use transform="matrix(0.05,0,0,0.05,39.95,0)" xlink:href="#J"/></g><g id="k"><use transform="matrix(0.05,0,0,0.05,0,0)" xlink:href="#y"/><use transform="matrix(0.05,0,0,0.05,12,0)" xlink:href="#w"/></g><path fill="#494949" d="M108 0H70L1-190h34L89-25l56-165h34" id="K"/><path fill="#494949" d="M177-190C167-65 218 103 67 71c-23-6-38-20-44-43l32-5c15 47 100 32 89-28v-30C133-14 115 1 83 1 29 1 15-40 15-95c0-56 16-97 71-98 29-1 48 16 59 35 1-10 0-23 2-32h30zM94-22c36 0 50-32 50-73 0-42-14-75-50-75-39 0-46 34-46 75s6 73 46 73" id="L"/><g id="l"><use transform="matrix(0.05,0,0,0.05,0,0)" xlink:href="#E"/><use transform="matrix(0.05,0,0,0.05,5.95,0)" xlink:href="#F"/><use transform="matrix(0.05,0,0,0.05,10.95,0)" xlink:href="#H"/><use transform="matrix(0.05,0,0,0.05,20.95,0)" xlink:href="#K"/><use transform="matrix(0.05,0,0,0.05,29.950000000000003,0)" xlink:href="#L"/><use transform="matrix(0.05,0,0,0.05,39.95,0)" xlink:href="#J"/></g><path fill="#fff" d="M212-179c-10-28-35-45-73-45-59 0-87 40-87 99 0 60 29 101 89 101 43 0 62-24 78-52l27 14C228-24 195 4 139 4 59 4 22-46 18-125c-6-104 99-153 187-111 19 9 31 26 39 46" id="M"/><path fill="#fff" d="M100-194c62-1 85 37 85 99 1 63-27 99-86 99S16-35 15-95c0-66 28-99 85-99zM99-20c44 1 53-31 53-75 0-43-8-75-51-75s-53 32-53 75 10 74 51 75" id="N"/><path fill="#fff" d="M210-169c-67 3-38 105-44 169h-31v-121c0-29-5-50-35-48C34-165 62-65 56 0H25l-1-190h30c1 10-1 24 2 32 10-44 99-50 107 0 11-21 27-35 58-36 85-2 47 119 55 194h-31v-121c0-29-5-49-35-48" id="O"/><path fill="#fff" d="M115-194c55 1 70 41 70 98S169 2 115 4C84 4 66-9 55-30l1 105H24l-1-265h31l2 30c10-21 28-34 59-34zm-8 174c40 0 45-34 45-75s-6-73-45-74c-42 0-51 32-51 76 0 43 10 73 51 73" id="P"/><path fill="#fff" d="M24 0v-261h32V0H24" id="Q"/><path fill="#fff" d="M100-194c63 0 86 42 84 106H49c0 40 14 67 53 68 26 1 43-12 49-29l28 8c-11 28-37 45-77 45C44 4 14-33 15-96c1-61 26-98 85-98zm52 81c6-60-76-77-97-28-3 7-6 17-6 28h103" id="R"/><path fill="#fff" d="M141 0L90-78 38 0H4l68-98-65-92h35l48 74 47-74h35l-64 92 68 98h-35" id="S"/><g id="m"><use transform="matrix(0.05,0,0,0.05,0,0)" xlink:href="#M"/><use transform="matrix(0.05,0,0,0.05,12.950000000000001,0)" xlink:href="#N"/><use transform="matrix(0.05,0,0,0.05,22.950000000000003,0)" xlink:href="#O"/><use transform="matrix(0.05,0,0,0.05,37.900000000000006,0)" xlink:href="#P"/><use transform="matrix(0.05,0,0,0.05,47.900000000000006,0)" xlink:href="#Q"/><use transform="matrix(0.05,0,0,0.05,51.85,0)" xlink:href="#R"/><use transform="matrix(0.05,0,0,0.05,61.85,0)" xlink:href="#S"/></g><path fill="#fff" d="M140-251c81 0 123 46 123 126C263-46 219 4 140 4 59 4 17-45 17-125s42-126 123-126zm0 227c63 0 89-41 89-101s-29-99-89-99c-61 0-89 39-89 99S79-25 140-24" id="T"/><path fill="#fff" d="M114-163C36-179 61-72 57 0H25l-1-190h30c1 12-1 29 2 39 6-27 23-49 58-41v29" id="U"/><path fill="#fff" d="M85-194c31 0 48 13 60 33l-1-100h32l1 261h-30c-2-10 0-23-3-31C134-8 116 4 85 4 32 4 16-35 15-94c0-66 23-100 70-100zm9 24c-40 0-46 34-46 75 0 40 6 74 45 74 42 0 51-32 51-76 0-42-9-74-50-73" id="V"/><g id="n"><use transform="matrix(0.05,0,0,0.05,0,0)" xlink:href="#T"/><use transform="matrix(0.05,0,0,0.05,14,0)" xlink:href="#U"/><use transform="matrix(0.05,0,0,0.05,19.95,0)" xlink:href="#V"/><use transform="matrix(0.05,0,0,0.05,29.950000000000003,0)" xlink:href="#R"/><use transform="matrix(0.05,0,0,0.05,39.95,0)" xlink:href="#U"/></g><g id="o"><use transform="matrix(0.05,0,0,0.05,0,0)" xlink:href="#T"/><use transform="matrix(0.05,0,0,0.05,14,0)" xlink:href="#U"/><use transform="matrix(0.05,0,0,0.05,19.95,0)" xlink:href="#V"/><use transform="matrix(0.05,0,0,0.05,29.950000000000003,0)" xlink:href="#R"/><use transform="matrix(0.05,0,0,0.05,39.95,0)" xlink:href="#U"/></g><path fill="#fff" d="M30 0v-248h33v221h125V0H30" id="W"/><path fill="#fff" d="M24-231v-30h32v30H24zM24 0v-190h32V0H24" id="X"/><path fill="#fff" d="M117-194c89-4 53 116 60 194h-32v-121c0-31-8-49-39-48C34-167 62-67 57 0H25l-1-190h30c1 10-1 24 2 32 11-22 29-35 61-36" id="Y"/><g id="p"><use transform="matrix(0.05,0,0,0.05,0,0)" xlink:href="#W"/><use transform="matrix(0.05,0,0,0.05,10,0)" xlink:href="#X"/><use transform="matrix(0.05,0,0,0.05,13.949999999999998,0)" xlink:href="#Y"/><use transform="matrix(0.05,0,0,0.05,23.95,0)" xlink:href="#R"/></g></defs></g></svg>