<svg xmlns="http://www.w3.org/2000/svg" xmlns:xlink="http://www.w3.org/1999/xlink" xmlns:lucid="lucid" width="1140" height="881"><g transform="translate(-360 -80)" lucid:page-tab-id="0_0"><path d="M1320 649l40-69h80l40 69-40 69h-80z" stroke="#000" stroke-width="3" fill="#83bbe5"/><use xlink:href="#a" transform="matrix(1,0,0,1,1325,585) translate(35.504999999999995 58.4)"/><use xlink:href="#b" transform="matrix(1,0,0,1,1325,585) translate(29.07999999999999 80)"/><path d="M380 640l40-69h80l40 69-40 69h-80z" stroke="#000" stroke-width="3" fill="#83bbe5"/><use xlink:href="#c" transform="matrix(1,0,0,1,385,576) translate(42.504999999999995 58.4)"/><use xlink:href="#b" transform="matrix(1,0,0,1,385,576) translate(29.07999999999999 80)"/><path d="M655.2 618h108v52.7c-18.04-8.8-29.27-8.8-36.07-8.8-10.8 0-25.17 8.8-35.97 8.8-6.7 0-18.03 0-35.96-8.8z" stroke="#000" stroke-width="2" fill="#666"/><path d="M661.2 622.65h108v52.7c-18.04-8.8-29.27-8.8-36.07-8.8-10.8 0-25.17 8.8-35.97 8.8-6.7 0-18.03 0-35.96-8.8z" stroke="#000" stroke-width="2" fill="#666"/><path d="M667.2 627.3h108V680c-18.04-8.8-29.27-8.8-36.07-8.8-10.8 0-25.17 8.8-35.97 8.8-6.7 0-18.03 0-35.96-8.8z" stroke="#000" stroke-width="2" fill="#666"/><use xlink:href="#d" transform="matrix(1,0,0,1,672.1999999999999,632.3) translate(23 20.775)"/><path d="M1095.2 618h108v52.7c-18.04-8.8-29.27-8.8-36.07-8.8-10.8 0-25.17 8.8-35.97 8.8-6.7 0-18.03 0-35.96-8.8z" stroke="#000" stroke-width="2" fill="#666"/><path d="M1101.2 622.65h108v52.7c-18.04-8.8-29.27-8.8-36.07-8.8-10.8 0-25.17 8.8-35.97 8.8-6.7 0-18.03 0-35.96-8.8z" stroke="#000" stroke-width="2" fill="#666"/><path d="M1107.2 627.3h108V680c-18.04-8.8-29.27-8.8-36.07-8.8-10.8 0-25.17 8.8-35.97 8.8-6.7 0-18.03 0-35.96-8.8z" stroke="#000" stroke-width="2" fill="#666"/><use xlink:href="#e" transform="matrix(1,0,0,1,1112.1999999999998,632.3) translate(16 14.4)"/><path d="M777.2 649h57" stroke="#000" stroke-width="2" fill="none"/><path d="M777.23 650h-1.03v-2h1.03z"/><path d="M849.46 649l-14.26 4.64v-9.28z" stroke="#000" stroke-width="2"/><path d="M1018.7 649h57" stroke="#000" stroke-width="2" fill="none"/><path d="M1018.73 650h-1.06l.03-.97V648h1.03z"/><path d="M1090.96 649l-14.26 4.64v-9.28z" stroke="#000" stroke-width="2"/><path d="M1015.2 649c0 44.18-35.82 80-80 80s-80-35.82-80-80 35.82-80 80-80 80 35.82 80 80z" stroke="#000" stroke-width="5" fill="#c1e4f7"/><use xlink:href="#f" transform="matrix(1,0,0,1,860.1999999999999,574) translate(54.525 80.025)"/><path d="M542.73 640h92.97" stroke="#000" stroke-width="2" fill="none"/><path d="M542.76 641h-1.6l.57-1-.58-1h1.6z"/><path d="M650.96 640l-14.26 4.64v-9.28z" stroke="#000" stroke-width="2"/><path d="M1217.2 649h82.56" stroke="#000" stroke-width="2" fill="none"/><path d="M1217.23 650h-1.03v-2h1.03z"/><path d="M1315.03 649l-14.27 4.64v-9.28z" stroke="#000" stroke-width="2"/><path d="M1005.2 490c0 27.6-28.03 50-62.6 50S880 517.6 880 490s28.03-50 62.6-50 62.6 22.4 62.6 50z" stroke="#000" stroke-width="4" fill="#3aa6dd"/><use xlink:href="#g" transform="matrix(1,0,0,1,885,445) translate(19.075000000000003 48.15)"/><path d="M1154.8 616.1l-13.02-29-8-15.88-6.22-11.2-5.32-8.65-4.75-7.07-4.4-5.96-4.12-5.14-3.94-4.5-3.82-4.03-3.74-3.6-3.7-3.3-3.66-3-3.68-2.76-3.73-2.54-3.77-2.37-3.88-2.2-4-2.06-4.13-1.92-4.3-1.78-4.55-1.66-4.8-1.52-5.13-1.4-5.5-1.25-5.96-1.1-6.53-.9-4.47-.44" stroke="#000" stroke-width="2" fill="none"/><path d="M1156.3 617h-2.2l-.23-.53 1.82-.82z"/><path d="M1010.43 490.15l14.47-3.97-.43 9.26z" stroke="#000" stroke-width="2"/><path d="M877 490.02l-8.64.18-9.54.6-9.38 1-9.15 1.34-8.88 1.7-8.53 2-8.16 2.26-7.77 2.53-7.35 2.73-6.93 2.9-6.53 3.08-6.1 3.2-5.74 3.3-5.34 3.4-5 3.46-4.65 3.52-4.33 3.6-4.04 3.62-3.75 3.67-3.48 3.72-3.24 3.75-3 3.78-2.77 3.83-2.57 3.87-2.37 3.9-2.2 3.98-2 4.02-1.8 4.1-1.66 4.15-1.47 4.24-1.3 4.33-1.15 4.44-.96 4.55-.65 3.82" stroke="#000" stroke-width="2" fill="none"/><path d="M878 490l.03 1-1.04.02-.05-2 1.1-.02z"/><path d="M715.45 613.77l-3.54-14.57 9.26.7z" stroke="#000" stroke-width="2"/><path d="M1155.03 616l-25.4-147.26-4.45-19.28-3.23-11.66-2.65-8.18-2.3-6.2-2.07-4.96-1.9-4.1-1.82-3.45-1.7-2.97-1.67-2.62-1.62-2.33-1.58-2.1-1.58-1.9-1.58-1.77-1.6-1.63-1.6-1.5-1.65-1.44-1.68-1.34-1.75-1.28-1.83-1.22-1.92-1.17-2.05-1.12-2.18-1.08-2.38-1.05-2.6-1.03-2.86-1-3.24-.98-3.74-.96-4.4-.94-5.4-.9-6.96-.9-9.8-.8-16.84-.68h-1.28" stroke="#000" stroke-width="2" fill="none"/><path d="M1156.2 617h-2l-.16-.85 1.97-.34z"/><path d="M1010.44 376.03l14.3-4.5-.08 9.26z" stroke="#000" stroke-width="2"/><path d="M877 376.02l-5.66.12-6.36.4-6.1.64-5.86.86-5.65 1.08-5.47 1.28-5.3 1.5-5.18 1.66-5.04 1.88-4.93 2.07-4.84 2.3-4.75 2.48-4.7 2.7-4.63 2.95-4.58 3.2-4.55 3.44-4.52 3.73-4.5 4.05-4.46 4.38-4.46 4.74-4.45 5.16-4.42 5.6-4.42 6.1-4.4 6.62-4.4 7.24-4.34 7.9-4.28 8.64-4.2 9.46-4.1 10.35-3.94 11.3-3.73 12.36-3.44 13.44-3.1 14.53-2.62 15.62-2.1 16.6-1.45 17.45-.36 8.66" stroke="#000" stroke-width="2" fill="none"/><path d="M878 376l.03 1-1.04.02-.05-2 1.1-.02z"/><path d="M715.3 613.77l-4.27-14.4 9.26.26z" stroke="#000" stroke-width="2"/><path d="M1000 150c0 27.6-26.86 50-60 50s-60-22.4-60-50 26.86-50 60-50 60 22.4 60 50z" stroke="#000" stroke-width="4" fill="#3aa6dd"/><use xlink:href="#h" transform="matrix(1,0,0,1,885,105) translate(35.525 48.15)"/><path d="M882.64 262.02l-6.57.14-7.08.44-6.66.7-6.28.92-5.95 1.14-5.65 1.33-5.4 1.5-5.2 1.68-5 1.86-4.82 2.03-4.68 2.2-4.55 2.38-4.44 2.56-4.34 2.77-4.26 2.96-4.2 3.2-4.14 3.4-4.1 3.7-4.07 4-4.04 4.3-4.02 4.67-4.02 5.08-4.03 5.54-4.04 6.08-4.06 6.7-4.08 7.42-4.1 8.26-4.1 9.26-4.15 10.46-4.13 11.92-4.14 13.7-4.1 16-4 18.9-3.84 22.8-3.56 28.28-3.05 36.83-2.17 53.7-.26 27.67" stroke="#000" stroke-width="2" fill="none"/><path d="M883.65 261.98l.02 1.02-1.03.02-.04-2 1.1-.02z"/><path d="M715.23 613.76l-4.5-14.3 9.27.08z" stroke="#000" stroke-width="2"/><path d="M877 150.02l-7.76.16-8.05.5-7.46.8-6.94 1-6.5 1.25-6.1 1.43-5.75 1.6-5.47 1.78-5.2 1.94-4.98 2.1-4.77 2.23-4.6 2.42-4.44 2.56-4.32 2.74-4.2 2.9-4.07 3.1-4 3.32-3.9 3.53-3.87 3.77-3.8 4.05-3.76 4.35-3.72 4.7-3.7 5.08-3.67 5.54-3.65 6.04-3.65 6.64-3.64 7.34-3.62 8.15-3.62 9.14-3.6 10.34-3.56 11.83-3.5 13.68-3.4 16.1-3.27 19.32-3 23.9-2.56 30.96-1.77 44.07.56 101.7 1.2 76.45" stroke="#000" stroke-width="2" fill="none"/><path d="M878 150l.03 1-1.04.02-.05-2 1.1-.02z"/><path d="M715.15 613.76l-4.86-14.2 9.26-.13z" stroke="#000" stroke-width="2"/><path d="M1011.22 263.02l2.4.25 6.12.9 5.8 1.1 5.5 1.3 5.26 1.47 5.03 1.63 4.83 1.8 4.67 1.96 4.52 2.13 4.4 2.3 4.27 2.46 4.18 2.65 4.1 2.85 4.02 3.06 3.98 3.3 3.92 3.53 3.9 3.82 3.86 4.12 3.85 4.46 3.85 4.85 3.84 5.3 3.85 5.8 3.86 6.37 3.88 7.06 3.9 7.86 3.93 8.8 3.93 9.96 3.95 11.34 3.94 13.06 3.9 15.22 3.83 18.05 3.67 21.85 3.43 27.28 2.98 35.96 2.17 54.28.47 54.86" stroke="#000" stroke-width="2" fill="none"/><path d="M996 262.18l14.5-3.84-.52 9.25z" stroke="#000" stroke-width="2"/><path d="M1156.2 617h-2v-1.02h2z"/><path d="M1020.48 150.88l5.28.55 6.76 1 6.3 1.2 5.92 1.4 5.58 1.55 5.28 1.7 5.02 1.88 4.8 2 4.57 2.17 4.4 2.3 4.26 2.46 4.1 2.6 4 2.78 3.9 2.96 3.8 3.14 3.73 3.35 3.64 3.58 3.6 3.85 3.55 4.1 3.5 4.44 3.48 4.8 3.46 5.18 3.43 5.67 3.4 6.22 3.4 6.85 3.4 7.6 3.36 8.5 3.34 9.6 3.3 10.95 3.23 12.62 3.13 14.78 2.98 17.67 2.73 21.7 2.3 27.8 1.57 38.5-.2 68.38-3.58 149.27" stroke="#000" stroke-width="2" fill="none"/><path d="M1005.24 150.15l14.47-3.95-.43 9.26z" stroke="#000" stroke-width="2"/><path d="M1156.22 616l-.02 1h-2l.02-1.05z"/><path d="M890 832c0 6.63-6.72 12-15 12-8.28 0-15-5.37-15-12s6.72-12 15-12c8.28 0 15 5.37 15 12zM890 928c0 6.63-6.72 12-15 12-8.28 0-15-5.37-15-12s6.72-12 15-12c8.28 0 15 5.37 15 12zM950 856c0 6.63-6.72 12-15 12-8.28 0-15-5.37-15-12s6.72-12 15-12c8.28 0 15 5.37 15 12zM950 904c0 6.63-6.72 12-15 12-8.28 0-15-5.37-15-12s6.72-12 15-12c8.28 0 15 5.37 15 12z" stroke="#000" stroke-width="2"/><path d="M875 911v-62" stroke="#000" stroke-width="8" fill="none"/><path d="M879 915.5l-4-.5-4 .5v-4.6h8zM875 845l4-.5v4.6h-8v-4.6z"/><path d="M878.7 876.08L921 859M878.8 876.05l-3.8 1.53M920.88 859.04l3.8-1.54M878.67 881.1l52.1 22.5M878.77 881.14L875 879.5M930.67 903.57l3.77 1.63" stroke="#000" stroke-width="8" fill="none"/><path d="M1060 920c0 11.05-10.03 20-22.4 20s-22.4-8.95-22.4-20 10.03-20 22.4-20 22.4 8.95 22.4 20z" stroke="#000" stroke-width="4" fill="#834187"/><path d="M1117.6 894v-28" stroke="#000" stroke-width="8" fill="none"/><path d="M1121.6 898.43l-3.9-.43h-.44l-3.66.44v-4.54h8zM1121.6 866.1h-8v-4.53l3.9.43h.44l3.66-.44z"/><path d="M1140 920c0 11.05-10.03 20-22.4 20s-22.4-8.95-22.4-20 10.03-20 22.4-20 22.4 8.95 22.4 20zM1060 840c0 11.05-10.03 20-22.4 20s-22.4-8.95-22.4-20 10.03-20 22.4-20 22.4 8.95 22.4 20zM1140 840c0 11.05-10.03 20-22.4 20s-22.4-8.95-22.4-20 10.03-20 22.4-20 22.4 8.95 22.4 20z" stroke="#000" stroke-width="4" fill="#834187"/><path d="M1066 840h23.2" stroke="#000" stroke-width="8" fill="none"/><path d="M1066.1 844h-4.53l.43-3.9v-.37l-.45-3.73h4.55zM1093.2 839.9v.37l.45 3.73h-4.55v-8h4.53z"/><path d="M1037.6 894v-28" stroke="#000" stroke-width="8" fill="none"/><path d="M1041.6 898.43l-3.9-.43h-.44l-3.66.44v-4.54h8zM1041.6 866.1h-8v-4.53l3.9.43h.44l3.66-.44z"/><path d="M1066 920h23.2" stroke="#000" stroke-width="8" fill="none"/><path d="M1066.1 924h-4.53l.43-3.9v-.37l-.45-3.73h4.55zM1093.2 919.9v.37l.45 3.73h-4.55v-8h4.53z"/><path d="M1056.95 858.98l41.4 41.94" stroke="#000" stroke-width="8" fill="none"/><path d="M1059.87 856.25l-5.7 5.62-3.42-3.47 3.1-1.97 3.1-3.13zM1104.57 901.53l-3.23 2.04-3 3.03-2.9-2.95 5.68-5.62z"/><path d="M1057.3 901.38l41.6-41.85" stroke="#000" stroke-width="8" fill="none"/><path d="M1060.2 904.13l-2.88 2.9-3.62-3.58-2.53-1.58 3.36-3.38zM1101.5 856.55l3.72 2.3-3.54 3.57-5.68-5.64 2.84-2.86z"/><path d="M1154.42 678.83l-37.88 31.08-92.17 81.8-8.66 6.52-7.2 4.98-6.46 4.06-6.04 3.46-5.84 3.02-5.78 2.7-5.87 2.43-6.05 2.22-6.38 2.04-6.86 1.88-7.52 1.73-8.44 1.57-9.72 1.4-11.57 1.15-12.45.72" stroke="#000" stroke-width="2" fill="none"/><path d="M1155.04 679.62l-.9-1.1 3.55-1.08z"/><path d="M894.24 831.93l14.16-4.95.2 9.27z" stroke="#000" stroke-width="2"/><path d="M1155.47 679.16l.66 2.34.74 3.16.58 3.04.43 2.93.3 2.86.18 2.8.06 2.76-.06 2.75-.17 2.77-.3 2.8-.42 2.83-.56 2.93-.72 3.05-.9 3.23-1.13 3.5-1.44 3.85-1.88 4.47-2.64 5.6-4.8 9.13-13.46 24.68-3 6.34-2.18 5.2-1.73 4.64-1.4 4.3-1.12 4.04-.9 3.9-.1.6" stroke="#000" stroke-width="2" fill="none"/><path d="M1156.44 678.9l-1.93.55-.26-.97 1.92-.58z"/><path d="M1117.93 814.78l-3.15-14.66 9.22.94z" stroke="#000" stroke-width="2"/><path d="M1300 928c0 6.63-17.9 12-40 12s-40-5.37-40-12v-96c0-6.63 17.9-12 40-12s40 5.37 40 12z" stroke="#000" stroke-width="4" fill="#834187"/><path d="M1300 832c0 6.63-17.9 12-40 12s-40-5.37-40-12" stroke="#000" stroke-width="4" fill="none"/><path d="M1155.5 679.14l.88 2.67 1.3 3.52 1.44 3.4 1.57 3.35 1.7 3.3 1.9 3.27 2.08 3.27 2.3 3.3 2.55 3.37 2.88 3.48 3.3 3.65 3.84 3.92 4.68 4.4 6.16 5.3 10.7 8.4 24.15 18.5 5.5 4.74 4.06 3.8 3.25 3.33 2.73 3.02 2.34 2.82 2.04 2.7 1.8 2.6 1.62 2.53 1.44 2.5 1.3 2.48 1.17 2.48 1.04 2.5.95 2.53.83 2.6.74 2.64.04.17" stroke="#000" stroke-width="2" fill="none"/><path d="M1156.47 678.86l-1.9.62-.33-1 1.92-.58z"/><path d="M1259.62 814.8l-6.3-13.63 9.2-1.1z" stroke="#000" stroke-width="2"/><path d="M917 672h40v40h-40z" stroke="#000" stroke-width="2" fill="#b2b2b2"/><use xlink:href="#i" transform="matrix(1,0,0,1,922,677) translate(7.5249999999999995 18.15)"/><path d="M917 158h44.65v30H917z" stroke="#000" stroke-width="2" fill="#b2b2b2"/><use xlink:href="#j" transform="matrix(1,0,0,1,922,163) translate(8.325 15.65)"/><path d="M918 500h44.65v30H918z" stroke="#000" stroke-width="2" fill="#b2b2b2"/><use xlink:href="#j" transform="matrix(1,0,0,1,923,505) translate(8.325 15.65)"/><path d="M1005.2 376c0 27.6-28.03 50-62.6 50S880 403.6 880 376s28.03-50 62.6-50 62.6 22.4 62.6 50z" stroke="#000" stroke-width="4" fill="#3aa6dd"/><use xlink:href="#k" transform="matrix(1,0,0,1,885,331) translate(20.9 48.15)"/><path d="M920 386h44.65v30H920z" stroke="#000" stroke-width="2" fill="#b2b2b2"/><use xlink:href="#j" transform="matrix(1,0,0,1,925,391) translate(8.325 15.65)"/><path d="M990.75 262c0 27.6-23.53 50-52.55 50-29.02 0-52.55-22.4-52.55-50s23.53-50 52.55-50c29.02 0 52.55 22.4 52.55 50z" stroke="#000" stroke-width="4" fill="#3aa6dd"/><use xlink:href="#l" transform="matrix(1,0,0,1,890.65,217) translate(30.025 48.15)"/><path d="M915.35 270H960v30h-44.65z" stroke="#000" stroke-width="2" fill="#b2b2b2"/><g><use xlink:href="#j" transform="matrix(1,0,0,1,920.35,275) translate(8.325 15.65)"/></g><defs><path d="M140-251c81 0 123 46 123 126C263-46 219 4 140 4 59 4 17-45 17-125s42-126 123-126zm0 227c63 0 89-41 89-101s-29-99-89-99c-61 0-89 39-89 99S79-25 140-24" id="m"/><path d="M84 4C-5 8 30-112 23-190h32v120c0 31 7 50 39 49 72-2 45-101 50-169h31l1 190h-30c-1-10 1-25-2-33-11 22-28 36-60 37" id="n"/><path d="M59-47c-2 24 18 29 38 22v24C64 9 27 4 27-40v-127H5v-23h24l9-43h21v43h35v23H59v120" id="o"/><path d="M115-194c53 0 69 39 70 98 0 66-23 100-70 100C84 3 66-7 56-30L54 0H23l1-261h32v101c10-23 28-34 59-34zm-8 174c40 0 45-34 45-75 0-40-5-75-45-74-42 0-51 32-51 76 0 43 10 73 51 73" id="p"/><path d="M100-194c62-1 85 37 85 99 1 63-27 99-86 99S16-35 15-95c0-66 28-99 85-99zM99-20c44 1 53-31 53-75 0-43-8-75-51-75s-53 32-53 75 10 74 51 75" id="q"/><path d="M117-194c89-4 53 116 60 194h-32v-121c0-31-8-49-39-48C34-167 62-67 57 0H25l-1-190h30c1 10-1 24 2 32 11-22 29-35 61-36" id="r"/><path d="M85-194c31 0 48 13 60 33l-1-100h32l1 261h-30c-2-10 0-23-3-31C134-8 116 4 85 4 32 4 16-35 15-94c0-66 23-100 70-100zm9 24c-40 0-46 34-46 75 0 40 6 74 45 74 42 0 51-32 51-76 0-42-9-74-50-73" id="s"/><g id="a"><use transform="matrix(0.05,0,0,0.05,0,0)" xlink:href="#m"/><use transform="matrix(0.05,0,0,0.05,14,0)" xlink:href="#n"/><use transform="matrix(0.05,0,0,0.05,24,0)" xlink:href="#o"/><use transform="matrix(0.05,0,0,0.05,29,0)" xlink:href="#p"/><use transform="matrix(0.05,0,0,0.05,39,0)" xlink:href="#q"/><use transform="matrix(0.05,0,0,0.05,49,0)" xlink:href="#n"/><use transform="matrix(0.05,0,0,0.05,59,0)" xlink:href="#r"/><use transform="matrix(0.05,0,0,0.05,69,0)" xlink:href="#s"/></g><path d="M143 4C61 4 22-44 18-125c-5-107 100-154 193-111 17 8 29 25 37 43l-32 9c-13-25-37-40-76-40-61 0-88 39-88 99 0 61 29 100 91 101 35 0 62-11 79-27v-45h-74v-28h105v86C228-13 192 4 143 4" id="t"/><path d="M141-36C126-15 110 5 73 4 37 3 15-17 15-53c-1-64 63-63 125-63 3-35-9-54-41-54-24 1-41 7-42 31l-33-3c5-37 33-52 76-52 45 0 72 20 72 64v82c-1 20 7 32 28 27v20c-31 9-61-2-59-35zM48-53c0 20 12 33 32 33 41-3 63-29 60-74-43 2-92-5-92 41" id="u"/><path d="M100-194c63 0 86 42 84 106H49c0 40 14 67 53 68 26 1 43-12 49-29l28 8c-11 28-37 45-77 45C44 4 14-33 15-96c1-61 26-98 85-98zm52 81c6-60-76-77-97-28-3 7-6 17-6 28h103" id="v"/><path d="M206 0h-36l-40-164L89 0H53L-1-190h32L70-26l43-164h34l41 164 42-164h31" id="w"/><path d="M179-190L93 31C79 59 56 82 12 73V49c39 6 53-20 64-50L1-190h34L92-34l54-156h33" id="x"/><path d="M87 75C49 33 22-17 22-94c0-76 28-126 65-167h31c-38 41-64 92-64 168S80 34 118 75H87" id="y"/><path d="M135-143c-3-34-86-38-87 0 15 53 115 12 119 90S17 21 10-45l28-5c4 36 97 45 98 0-10-56-113-15-118-90-4-57 82-63 122-42 12 7 21 19 24 35" id="z"/><path d="M33-261c38 41 65 92 65 168S71 34 33 75H2C39 34 66-17 66-93S39-220 2-261h31" id="A"/><g id="b"><use transform="matrix(0.05,0,0,0.05,0,0)" xlink:href="#t"/><use transform="matrix(0.05,0,0,0.05,14,0)" xlink:href="#u"/><use transform="matrix(0.05,0,0,0.05,24,0)" xlink:href="#o"/><use transform="matrix(0.05,0,0,0.05,29,0)" xlink:href="#v"/><use transform="matrix(0.05,0,0,0.05,39,0)" xlink:href="#w"/><use transform="matrix(0.05,0,0,0.05,51.95,0)" xlink:href="#u"/><use transform="matrix(0.05,0,0,0.05,61.95,0)" xlink:href="#x"/><use transform="matrix(0.05,0,0,0.05,70.95,0)" xlink:href="#y"/><use transform="matrix(0.05,0,0,0.05,76.9,0)" xlink:href="#z"/><use transform="matrix(0.05,0,0,0.05,85.9,0)" xlink:href="#A"/></g><path d="M33 0v-248h34V0H33" id="B"/><g id="c"><use transform="matrix(0.05,0,0,0.05,0,0)" xlink:href="#B"/><use transform="matrix(0.05,0,0,0.05,5,0)" xlink:href="#r"/><use transform="matrix(0.05,0,0,0.05,15,0)" xlink:href="#p"/><use transform="matrix(0.05,0,0,0.05,25,0)" xlink:href="#q"/><use transform="matrix(0.05,0,0,0.05,35,0)" xlink:href="#n"/><use transform="matrix(0.05,0,0,0.05,45,0)" xlink:href="#r"/><use transform="matrix(0.05,0,0,0.05,55,0)" xlink:href="#s"/></g><path fill="#fff" d="M33 0v-248h34V0H33" id="C"/><path fill="#fff" d="M117-194c89-4 53 116 60 194h-32v-121c0-31-8-49-39-48C34-167 62-67 57 0H25l-1-190h30c1 10-1 24 2 32 11-22 29-35 61-36" id="D"/><path fill="#fff" d="M30 0v-248h33v221h125V0H30" id="E"/><path fill="#fff" d="M100-194c62-1 85 37 85 99 1 63-27 99-86 99S16-35 15-95c0-66 28-99 85-99zM99-20c44 1 53-31 53-75 0-43-8-75-51-75s-53 32-53 75 10 74 51 75" id="F"/><path fill="#fff" d="M177-190C167-65 218 103 67 71c-23-6-38-20-44-43l32-5c15 47 100 32 89-28v-30C133-14 115 1 83 1 29 1 15-40 15-95c0-56 16-97 71-98 29-1 48 16 59 35 1-10 0-23 2-32h30zM94-22c36 0 50-32 50-73 0-42-14-75-50-75-39 0-46 34-46 75s6 73 46 73" id="G"/><g id="d"><use transform="matrix(0.05,0,0,0.05,0,0)" xlink:href="#C"/><use transform="matrix(0.05,0,0,0.05,5,0)" xlink:href="#D"/><use transform="matrix(0.05,0,0,0.05,15,0)" xlink:href="#E"/><use transform="matrix(0.05,0,0,0.05,25,0)" xlink:href="#F"/><use transform="matrix(0.05,0,0,0.05,35,0)" xlink:href="#G"/></g><path fill="#fff" d="M140-251c81 0 123 46 123 126C263-46 219 4 140 4 59 4 17-45 17-125s42-126 123-126zm0 227c63 0 89-41 89-101s-29-99-89-99c-61 0-89 39-89 99S79-25 140-24" id="H"/><path fill="#fff" d="M84 4C-5 8 30-112 23-190h32v120c0 31 7 50 39 49 72-2 45-101 50-169h31l1 190h-30c-1-10 1-25-2-33-11 22-28 36-60 37" id="I"/><path fill="#fff" d="M59-47c-2 24 18 29 38 22v24C64 9 27 4 27-40v-127H5v-23h24l9-43h21v43h35v23H59v120" id="J"/><g id="e"><use transform="matrix(0.05,0,0,0.05,0,0)" xlink:href="#H"/><use transform="matrix(0.05,0,0,0.05,14,0)" xlink:href="#I"/><use transform="matrix(0.05,0,0,0.05,24,0)" xlink:href="#J"/><use transform="matrix(0.05,0,0,0.05,29,0)" xlink:href="#E"/><use transform="matrix(0.05,0,0,0.05,39,0)" xlink:href="#F"/><use transform="matrix(0.05,0,0,0.05,49,0)" xlink:href="#G"/></g><path d="M240 0l2-218c-23 76-54 145-80 218h-23L58-218 59 0H30v-248h44l77 211c21-75 51-140 76-211h43V0h-30" id="K"/><path d="M185-189c-5-48-123-54-124 2 14 75 158 14 163 119 3 78-121 87-175 55-17-10-28-26-33-46l33-7c5 56 141 63 141-1 0-78-155-14-162-118-5-82 145-84 179-34 5 7 8 16 11 25" id="L"/><g id="f"><use transform="matrix(0.05,0,0,0.05,0,0)" xlink:href="#m"/><use transform="matrix(0.05,0,0,0.05,14,0)" xlink:href="#K"/><use transform="matrix(0.05,0,0,0.05,28.950000000000003,0)" xlink:href="#L"/></g><path d="M205 0l-28-72H64L36 0H1l101-248h38L239 0h-34zm-38-99l-47-123c-12 45-31 82-46 123h93" id="M"/><path d="M24 0v-261h32V0H24" id="N"/><path d="M96-169c-40 0-48 33-48 73s9 75 48 75c24 0 41-14 43-38l32 2c-6 37-31 61-74 61-59 0-76-41-82-99-10-93 101-131 147-64 4 7 5 14 7 22l-32 3c-4-21-16-35-41-35" id="O"/><path d="M24-231v-30h32v30H24zM24 0v-190h32V0H24" id="P"/><g id="g"><use transform="matrix(0.05,0,0,0.05,0,0)" xlink:href="#M"/><use transform="matrix(0.05,0,0,0.05,12,0)" xlink:href="#N"/><use transform="matrix(0.05,0,0,0.05,15.949999999999998,0)" xlink:href="#N"/><use transform="matrix(0.05,0,0,0.05,19.9,0)" xlink:href="#q"/><use transform="matrix(0.05,0,0,0.05,29.899999999999995,0)" xlink:href="#O"/><use transform="matrix(0.05,0,0,0.05,38.9,0)" xlink:href="#u"/><use transform="matrix(0.05,0,0,0.05,48.9,0)" xlink:href="#o"/><use transform="matrix(0.05,0,0,0.05,53.900000000000006,0)" xlink:href="#P"/><use transform="matrix(0.05,0,0,0.05,57.85,0)" xlink:href="#q"/><use transform="matrix(0.05,0,0,0.05,67.85,0)" xlink:href="#r"/></g><path d="M233-177c-1 41-23 64-60 70L243 0h-38l-65-103H63V0H30v-248c88 3 205-21 203 71zM63-129c60-2 137 13 137-47 0-61-80-42-137-45v92" id="Q"/><g id="h"><use transform="matrix(0.05,0,0,0.05,0,0)" xlink:href="#L"/><use transform="matrix(0.05,0,0,0.05,12,0)" xlink:href="#m"/><use transform="matrix(0.05,0,0,0.05,26,0)" xlink:href="#Q"/></g><use transform="matrix(0.05,0,0,0.05,0,0)" xlink:href="#K" id="i"/><path d="M47-170H22l-4-78h33" id="R"/><g id="j"><use transform="matrix(0.05,0,0,0.05,0,0)" xlink:href="#K"/><use transform="matrix(0.05,0,0,0.05,14.950000000000001,0)" xlink:href="#R"/></g><path d="M30-248c87 1 191-15 191 75 0 78-77 80-158 76V0H30v-248zm33 125c57 0 124 11 124-50 0-59-68-47-124-48v98" id="S"/><path d="M114-163C36-179 61-72 57 0H25l-1-190h30c1 12-1 29 2 39 6-27 23-49 58-41v29" id="T"/><path d="M127-220V0H93v-220H8v-28h204v28h-85" id="U"/><g id="k"><use transform="matrix(0.05,0,0,0.05,0,0)" xlink:href="#S"/><use transform="matrix(0.05,0,0,0.05,12,0)" xlink:href="#T"/><use transform="matrix(0.05,0,0,0.05,17.95,0)" xlink:href="#v"/><use transform="matrix(0.05,0,0,0.05,27.950000000000003,0)" xlink:href="#U"/><use transform="matrix(0.05,0,0,0.05,38.25,0)" xlink:href="#T"/><use transform="matrix(0.05,0,0,0.05,44.2,0)" xlink:href="#u"/><use transform="matrix(0.05,0,0,0.05,54.2,0)" xlink:href="#s"/><use transform="matrix(0.05,0,0,0.05,64.2,0)" xlink:href="#v"/></g><path d="M177-190C167-65 218 103 67 71c-23-6-38-20-44-43l32-5c15 47 100 32 89-28v-30C133-14 115 1 83 1 29 1 15-40 15-95c0-56 16-97 71-98 29-1 48 16 59 35 1-10 0-23 2-32h30zM94-22c36 0 50-32 50-73 0-42-14-75-50-75-39 0-46 34-46 75s6 73 46 73" id="V"/><g id="l"><use transform="matrix(0.05,0,0,0.05,0,0)" xlink:href="#M"/><use transform="matrix(0.05,0,0,0.05,12,0)" xlink:href="#N"/><use transform="matrix(0.05,0,0,0.05,15.949999999999998,0)" xlink:href="#V"/><use transform="matrix(0.05,0,0,0.05,25.950000000000003,0)" xlink:href="#q"/></g></defs></g></svg>