<svg xmlns="http://www.w3.org/2000/svg" xmlns:xlink="http://www.w3.org/1999/xlink" xmlns:lucid="lucid" width="1130.69" height="388.57"><g transform="translate(-100 -271.42857142857133)" lucid:page-tab-id="0nlh03TqErh7"><path d="M688.57 404H871.3v120H688.58zM357.23 404h182.73v120H357.23z" stroke="#494949" stroke-width="3" fill="#fff"/><path d="M125.7 334H200v60h-74.3z" stroke="#000" stroke-opacity="0" stroke-width="2" fill="#fff" fill-opacity="0"/><use xlink:href="#a" transform="matrix(1,0,0,1,130.71428571428572,339) translate(9.549999999999997 17.525)"/><use xlink:href="#b" transform="matrix(1,0,0,1,130.71428571428572,339) translate(15.524999999999999 39.125)"/><path d="M200 360c0 22.1-16.63 40-37.14 40-20.52 0-37.15-17.9-37.15-40s16.64-40 37.16-40c20.5 0 37.14 17.9 37.14 40z" stroke="#fff" stroke-width="2" fill="#333"/><path d="M194.7 360c0 18.94-14.26 34.3-31.84 34.3-17.6 0-31.84-15.36-31.84-34.3 0-18.94 14.25-34.3 31.84-34.3 17.58 0 31.83 15.36 31.83 34.3z" stroke="#fff" stroke-width="2" fill="#666"/><path d="M199.6 580c0 22.1-16.64 40-37.15 40-20.5 0-37.14-17.9-37.14-40s16.64-40 37.15-40c20.5 0 37.14 17.9 37.14 40z" stroke="#fff" stroke-width="2" fill="#333"/><path d="M194.3 580c0 18.94-14.27 34.3-31.85 34.3-17.58 0-31.84-15.36-31.84-34.3 0-18.94 14.27-34.3 31.85-34.3 17.58 0 31.84 15.36 31.84 34.3z" stroke="#fff" stroke-width="2" fill="#666"/><path d="M120 448.3h74.3v60H120z" stroke="#000" stroke-opacity="0" stroke-width="2" fill="#fff" fill-opacity="0"/><use xlink:href="#a" transform="matrix(1,0,0,1,125,453.2857142857142) translate(9.549999999999997 17.525)"/><use xlink:href="#b" transform="matrix(1,0,0,1,125,453.2857142857142) translate(15.524999999999999 39.125)"/><path d="M199.6 468.3c0 22.08-16.64 40-37.15 40-20.5 0-37.14-17.92-37.14-40 0-22.1 16.64-40 37.15-40 20.5 0 37.14 17.9 37.14 40z" stroke="#fff" stroke-width="2" fill="#333"/><path d="M194.3 468.3c0 18.92-14.27 34.27-31.85 34.27-17.58 0-31.84-15.35-31.84-34.28 0-18.95 14.27-34.3 31.85-34.3 17.58 0 31.84 15.35 31.84 34.3z" stroke="#fff" stroke-width="2" fill="#666"/><path d="M527.96 464c0 30.85-26.86 55.86-60 55.86-33.13 0-60-25-60-55.86 0-30.85 26.87-55.86 60-55.86 33.14 0 60 25 60 55.86z" stroke="#fff" stroke-width="2" fill="#333"/><path d="M519.4 464c0 26.44-23.03 47.88-51.44 47.88-28.4 0-51.42-21.44-51.42-47.88s23.02-47.88 51.42-47.88c28.4 0 51.43 21.44 51.43 47.88z" stroke="#fff" stroke-width="2" fill="#666"/><path d="M818.53 465.14c0 30.85-26.86 55.86-60 55.86-33.13 0-60-25-60-55.86 0-30.85 26.87-55.85 60-55.85 33.14 0 60 25 60 55.84z" stroke="#fff" stroke-width="2" fill="#333"/><path d="M809.96 465.14c0 26.44-23.02 47.88-51.43 47.88-28.4 0-51.43-21.44-51.43-47.88s23.03-47.87 51.43-47.87 51.43 21.43 51.43 47.87z" stroke="#fff" stroke-width="2" fill="#666"/><path d="M1051.55 400c0 11.05-8.95 20-20 20-11.04 0-20-8.95-20-20s8.96-20 20-20c11.05 0 20 8.95 20 20z" stroke="#fff" stroke-width="2" fill="#333"/><path d="M1048.7 400c0 9.47-7.68 17.14-17.15 17.14-9.47 0-17.14-7.67-17.14-17.14s7.68-17.14 17.15-17.14c9.47 0 17.14 7.67 17.14 17.14z" stroke="#fff" stroke-width="2" fill="#666"/><path d="M1111.55 400c0 11.05-8.95 20-20 20-11.04 0-20-8.95-20-20s8.96-20 20-20c11.05 0 20 8.95 20 20z" stroke="#fff" stroke-width="2" fill="#333"/><path d="M1108.7 400c0 9.47-7.68 17.14-17.15 17.14-9.47 0-17.14-7.67-17.14-17.14s7.68-17.14 17.15-17.14c9.47 0 17.14 7.67 17.14 17.14z" stroke="#fff" stroke-width="2" fill="#666"/><path d="M1048.7 311.43c0 11.04-8.96 20-20 20-11.05 0-20-8.96-20-20 0-11.05 8.95-20 20-20 11.04 0 20 8.95 20 20z" stroke="#fff" stroke-width="2" fill="#333"/><path d="M1045.84 311.43c0 9.47-7.68 17.14-17.15 17.14-9.47 0-17.15-7.67-17.15-17.14s7.68-17.14 17.14-17.14 17.14 7.66 17.14 17.13z" stroke="#fff" stroke-width="2" fill="#666"/><path d="M1048.7 500.3c0 11.05-8.96 20-20 20-11.05 0-20-8.95-20-20 0-11.04 8.95-20 20-20 11.04 0 20 8.96 20 20z" stroke="#fff" stroke-width="2" fill="#333"/><path d="M1045.84 500.3c0 9.47-7.68 17.15-17.15 17.15-9.47 0-17.15-7.68-17.15-17.14s7.68-17.14 17.14-17.14 17.14 7.68 17.14 17.15z" stroke="#fff" stroke-width="2" fill="#666"/><path d="M1210.7 500.3c0 11.05-8.96 20-20 20-11.05 0-20-8.95-20-20 0-11.04 8.95-20 20-20 11.04 0 20 8.96 20 20z" stroke="#fff" stroke-width="2" fill="#333"/><path d="M1207.84 500.3c0 9.47-7.68 17.15-17.15 17.15-9.47 0-17.15-7.68-17.15-17.14s7.68-17.14 17.14-17.14 17.14 7.68 17.14 17.15z" stroke="#fff" stroke-width="2" fill="#666"/><path d="M1156.7 500.3c0 11.05-8.96 20-20 20-11.05 0-20-8.95-20-20 0-11.04 8.95-20 20-20 11.04 0 20 8.96 20 20z" stroke="#fff" stroke-width="2" fill="#333"/><path d="M1153.84 500.3c0 9.47-7.68 17.15-17.15 17.15-9.47 0-17.15-7.68-17.15-17.14s7.68-17.14 17.14-17.14 17.14 7.68 17.14 17.15z" stroke="#fff" stroke-width="2" fill="#666"/><path d="M1102.7 500.3c0 11.05-8.96 20-20 20-11.05 0-20-8.95-20-20 0-11.04 8.95-20 20-20 11.04 0 20 8.96 20 20z" stroke="#fff" stroke-width="2" fill="#333"/><path d="M1099.84 500.3c0 9.47-7.68 17.15-17.15 17.15-9.47 0-17.15-7.68-17.15-17.14s7.68-17.14 17.14-17.14 17.14 7.68 17.14 17.15z" stroke="#fff" stroke-width="2" fill="#666"/><path d="M1048.7 620c0 11.05-8.96 20-20 20-11.05 0-20-8.95-20-20s8.95-20 20-20c11.04 0 20 8.95 20 20z" stroke="#fff" stroke-width="2" fill="#333"/><path d="M1045.84 620c0 9.47-7.68 17.14-17.15 17.14-9.47 0-17.15-7.67-17.15-17.14s7.68-17.14 17.14-17.14 17.14 7.67 17.14 17.14z" stroke="#fff" stroke-width="2" fill="#666"/><path d="M1108.7 620c0 11.05-8.96 20-20 20-11.05 0-20-8.95-20-20s8.95-20 20-20c11.04 0 20 8.95 20 20z" stroke="#fff" stroke-width="2" fill="#333"/><path d="M1105.84 620c0 9.47-7.68 17.14-17.15 17.14-9.47 0-17.15-7.67-17.15-17.14s7.68-17.14 17.14-17.14 17.14 7.67 17.14 17.14z" stroke="#fff" stroke-width="2" fill="#666"/><path d="M1168.7 620c0 11.05-8.96 20-20 20-11.05 0-20-8.95-20-20s8.95-20 20-20c11.04 0 20 8.95 20 20z" stroke="#fff" stroke-width="2" fill="#333"/><path d="M1165.84 620c0 9.47-7.68 17.14-17.15 17.14-9.47 0-17.15-7.67-17.15-17.14s7.68-17.14 17.14-17.14 17.14 7.67 17.14 17.14z" stroke="#fff" stroke-width="2" fill="#666"/><path d="M201 364.02l2.7.06 3.48.22 3.3.34 3.15.47 3.03.58 2.92.7 2.84.78 2.77.9 2.72 1.02 2.7 1.13 2.67 1.27 2.68 1.4 2.7 1.57 2.76 1.75 2.83 1.95 2.94 2.24 3.12 2.56 3.34 3.02 3.73 3.65 4.36 4.67 5.85 6.8 26.37 32.6 4.37 4.67 3.73 3.65 3.34 3.02 3.12 2.57 2.94 2.25 2.83 1.96 2.75 1.76 2.7 1.57 2.7 1.4 2.67 1.26 2.7 1.12 2.72 1.02 2.77.9 2.85.8 1.24.28" stroke="#000" stroke-width="2" fill="none"/><path d="M201.05 363.02l-.04 2-1-.02v-2z"/><path d="M352.5 463.64l-14.68 3 1.04-9.22z" stroke="#000" stroke-width="2"/><path d="M201.6 579.98l8.43-.17 8.2-.5 7.28-.77 6.54-.96 5.97-1.14 5.5-1.3 5.15-1.42 4.84-1.56 4.6-1.7 4.42-1.87 4.3-2.02 4.17-2.2 4.13-2.38 4.1-2.6 4.14-2.88 4.2-3.2 4.32-3.58 4.5-4.06 4.8-4.7 5.2-5.53 5.8-6.74 6.8-8.6 8.58-11.85 13.03-19.7 5.43-8.8" stroke="#000" stroke-width="2" fill="none"/><path d="M201.64 580.98l-1.1.02.05-1-.04-1 1.04-.02z"/><path d="M354.03 466.76l-3.53 14.57-7.9-4.86z" stroke="#000" stroke-width="2"/><path d="M201.6 468.27l54.02-1 81.62-2.66" stroke="#000" stroke-width="2" fill="none"/><path d="M201.64 469.27l-1.1.02.05-1-.04-1 1.04-.03z"/><path d="M352.5 464.1l-14.1 5.1-.3-9.26z" stroke="#000" stroke-width="2"/><path d="M542.47 464.3l126.1-.26" stroke="#000" stroke-width="2" fill="none"/><path d="M542.5 465.3h-1.04v-2h1.03z"/><path d="M683.84 464l-14.26 4.67-.02-9.27z" stroke="#000" stroke-width="2"/><path d="M365.8 462.5h37.08v6.8H365.8zM388.1 436v13.27h4.57l-9.14 8.23-9.14-8.23h4.56V436zM379.27 496v-13.27h-4.57l9.14-8.23 9.14 8.23h-4.57V496z" stroke="#494949" stroke-width="2" fill="#fff"/><path d="M825 409.14h40v40h-40z" stroke="#000" stroke-width="2" fill="#fff"/><path d="M832 418.42h9.92v9.92H832zM849.08 418.14H859v9.92h-9.92zM835 436.42h20v4.96h-20z" stroke="#000"/><defs><path fill="#fff" d="M140-251c81 0 123 46 123 126C263-46 219 4 140 4 59 4 17-45 17-125s42-126 123-126zm0 227c63 0 89-41 89-101s-29-99-89-99c-61 0-89 39-89 99S79-25 140-24" id="c"/><path fill="#fff" d="M114-163C36-179 61-72 57 0H25l-1-190h30c1 12-1 29 2 39 6-27 23-49 58-41v29" id="d"/><path fill="#fff" d="M85-194c31 0 48 13 60 33l-1-100h32l1 261h-30c-2-10 0-23-3-31C134-8 116 4 85 4 32 4 16-35 15-94c0-66 23-100 70-100zm9 24c-40 0-46 34-46 75 0 40 6 74 45 74 42 0 51-32 51-76 0-42-9-74-50-73" id="e"/><path fill="#fff" d="M100-194c63 0 86 42 84 106H49c0 40 14 67 53 68 26 1 43-12 49-29l28 8c-11 28-37 45-77 45C44 4 14-33 15-96c1-61 26-98 85-98zm52 81c6-60-76-77-97-28-3 7-6 17-6 28h103" id="f"/><g id="a"><use transform="matrix(0.05,0,0,0.05,0,0)" xlink:href="#c"/><use transform="matrix(0.05,0,0,0.05,14,0)" xlink:href="#d"/><use transform="matrix(0.05,0,0,0.05,19.95,0)" xlink:href="#e"/><use transform="matrix(0.05,0,0,0.05,29.950000000000003,0)" xlink:href="#f"/><use transform="matrix(0.05,0,0,0.05,39.95,0)" xlink:href="#d"/></g><path fill="#fff" d="M30 0v-248h33v221h125V0H30" id="g"/><path fill="#fff" d="M24-231v-30h32v30H24zM24 0v-190h32V0H24" id="h"/><path fill="#fff" d="M117-194c89-4 53 116 60 194h-32v-121c0-31-8-49-39-48C34-167 62-67 57 0H25l-1-190h30c1 10-1 24 2 32 11-22 29-35 61-36" id="i"/><g id="b"><use transform="matrix(0.05,0,0,0.05,0,0)" xlink:href="#g"/><use transform="matrix(0.05,0,0,0.05,10,0)" xlink:href="#h"/><use transform="matrix(0.05,0,0,0.05,13.949999999999998,0)" xlink:href="#i"/><use transform="matrix(0.05,0,0,0.05,23.95,0)" xlink:href="#f"/></g></defs></g></svg>