<svg xmlns="http://www.w3.org/2000/svg" xmlns:xlink="http://www.w3.org/1999/xlink" xmlns:lucid="lucid" width="1089.96" height="1440"><g transform="translate(-134.99999999994168 -300)" lucid:page-tab-id="0_0"><path d="M865 1520c16.57 0 30 13.43 30 30v140c0 16.57-13.43 30-30 30H185c-16.57 0-30-13.43-30-30v-140c0-16.57 13.43-30 30-30z" stroke="#666" stroke-width="3" fill="#e5e5e5"/><path d="M155 325c0-2.76 2.24-5 5-5h134c2.76 0 5 2.24 5 5v97c-24.05-17.03-39.02-17.03-48.1-17.03-14.4 0-33.55 17.03-47.95 17.03-8.93 0-24.05 0-47.95-17.03z" stroke="#a5a7aa" stroke-width="3" fill="#333"/><path d="M163 334c0-2.76 2.24-5 5-5h134c2.76 0 5 2.24 5 5v97c-24.05-17.03-39.02-17.03-48.1-17.03-14.4 0-33.55 17.03-47.95 17.03-8.93 0-24.05 0-47.95-17.03z" stroke="#a5a7aa" stroke-width="3" fill="#333"/><path d="M171 343c0-2.76 2.24-5 5-5h134c2.76 0 5 2.24 5 5v97c-24.05-17.03-39.02-17.03-48.1-17.03-14.4 0-33.55 17.03-47.95 17.03-8.93 0-24.05 0-47.95-17.03z" stroke="#a5a7aa" stroke-width="3" fill="#333"/><use xlink:href="#a" transform="matrix(1,0,0,1,175.99999999994168,343) translate(23.39691358024691 41.425694444444446)"/><path d="M714 388.6c0 37.9-31.34 68.6-70 68.6s-70-30.7-70-68.6c0-37.88 31.34-68.6 70-68.6s70 30.72 70 68.6z" stroke="#333" stroke-width="6" fill="#dedfff"/><use xlink:href="#b" transform="matrix(1,0,0,1,578.8,324.8) translate(61.17901234567901 59.644444444444446)"/><use xlink:href="#c" transform="matrix(1,0,0,1,578.8,324.8) translate(18.012345679012345 78.31111111111112)"/><path d="M994.96 325c0-2.76 2.24-5 5-5h134c2.76 0 5 2.24 5 5v97c-24.05-17.03-39.02-17.03-48.1-17.03-14.4 0-33.55 17.03-47.95 17.03-8.9 0-24.03 0-47.94-17.03z" stroke="#a5a7aa" stroke-width="3" fill="#333"/><path d="M1002.96 334c0-2.76 2.24-5 5-5h134c2.76 0 5 2.24 5 5v97c-24.05-17.03-39.02-17.03-48.1-17.03-14.4 0-33.55 17.03-47.95 17.03-8.9 0-24.03 0-47.94-17.03z" stroke="#a5a7aa" stroke-width="3" fill="#333"/><path d="M1010.96 343c0-2.76 2.24-5 5-5h134c2.76 0 5 2.24 5 5v97c-24.05-17.03-39.02-17.03-48.1-17.03-14.4 0-33.55 17.03-47.95 17.03-8.9 0-24.03 0-47.94-17.03z" stroke="#a5a7aa" stroke-width="3" fill="#333"/><use xlink:href="#d" transform="matrix(1,0,0,1,1015.9625110639554,343) translate(17.347530864197523 41.425694444444446)"/><path d="M317 380l76.9 1.42 160.73 6.52" stroke="#666" fill="none"/><path d="M317.03 379.5l-.02 1h-.5v-1z" fill="#666"/><path d="M569.38 388.54l-14.44 4.05.38-9.27z" stroke="#666" fill="#666"/><path d="M717.5 388.6l88.95-1.63 170.64-6.36" stroke="#666" fill="none"/><path d="M717.53 389.1h-.55l.02-.5-.02-.5h.53z" fill="#666"/><path d="M991.85 380.06l-14.1 5.16-.33-9.26z" stroke="#666" fill="#666"/><path d="M535.24 485c0-2.76 2.24-5 5-5h80c2.76 0 5 2.24 5 5v30c0 2.76-2.24 5-5 5h-80c-2.76 0-5-2.24-5-5z" stroke="#666" stroke-width="3" fill="#a3d977"/><use xlink:href="#e" transform="matrix(1,0,0,1,540.2368663850577,485) translate(2.921604938271603 17.519444444444446)"/><path d="M660.26 485c0-2.76 2.23-5 5-5h80c2.76 0 5 2.24 5 5v30c0 2.76-2.24 5-5 5h-80c-2.77 0-5-2.24-5-5z" stroke="#666" stroke-width="3" fill="#a3d977"/><use xlink:href="#f" transform="matrix(1,0,0,1,665.2556108530512,485) translate(2.921604938271603 17.519444444444446)"/><path d="M714 860c0 33.14-28.26 60-63.13 60-34.86 0-63.12-26.86-63.12-60s28.26-60 63.13-60c34.86 0 63.12 26.86 63.12 60z" stroke="#333" stroke-width="3" fill="#dedfff"/><use xlink:href="#g" transform="matrix(1,0,0,1,592.55,804.8) translate(54.17901234567901 50.331944444444446)"/><use xlink:href="#h" transform="matrix(1,0,0,1,592.55,804.8) translate(15.95987654320987 68.99861111111112)"/><path d="M660.26 545c0-2.76 2.23-5 5-5h80c2.76 0 5 2.24 5 5v30c0 2.76-2.24 5-5 5h-80c-2.77 0-5-2.24-5-5z" stroke="#666" stroke-width="3" fill="#c7e8ac"/><use xlink:href="#i" transform="matrix(1,0,0,1,665.2556108530512,545) translate(4.239506172839505 17.519444444444446)"/><path d="M944.96 560h260v120h-260z" stroke="#000" stroke-width="2" fill-opacity="0"/><use xlink:href="#j" transform="matrix(1,0,0,1,949.9625110639554,565) translate(0 14.4)"/><use xlink:href="#k" transform="matrix(1,0,0,1,949.9625110639554,565) translate(0 36)"/><use xlink:href="#l" transform="matrix(1,0,0,1,949.9625110639554,565) translate(59.95 36)"/><use xlink:href="#m" transform="matrix(1,0,0,1,949.9625110639554,565) translate(0 57.6)"/><use xlink:href="#n" transform="matrix(1,0,0,1,949.9625110639554,565) translate(44 57.6)"/><use xlink:href="#o" transform="matrix(1,0,0,1,949.9625110639554,565) translate(0 79.20000000000002)"/><use xlink:href="#p" transform="matrix(1,0,0,1,949.9625110639554,565) translate(118.60000000000001 79.20000000000002)"/><use xlink:href="#q" transform="matrix(1,0,0,1,949.9625110639554,565) translate(0 100.80000000000001)"/><path d="M155 560h245v80H155z" stroke="#000" stroke-width="2" fill-opacity="0"/><use xlink:href="#r" transform="matrix(1,0,0,1,159.99999999994168,565) translate(0 14.4)"/><use xlink:href="#k" transform="matrix(1,0,0,1,159.99999999994168,565) translate(0 36)"/><use xlink:href="#l" transform="matrix(1,0,0,1,159.99999999994168,565) translate(59.95 36)"/><use xlink:href="#m" transform="matrix(1,0,0,1,159.99999999994168,565) translate(0 57.6)"/><use xlink:href="#s" transform="matrix(1,0,0,1,159.99999999994168,565) translate(44 57.6)"/><use xlink:href="#t" transform="matrix(1,0,0,1,159.99999999994168,565) translate(0 79.20000000000002)"/><path d="M155 720h260v120H155z" stroke="#000" stroke-width="2" fill-opacity="0"/><g><use xlink:href="#r" transform="matrix(1,0,0,1,159.99999999994168,725) translate(0 14.4)"/><use xlink:href="#k" transform="matrix(1,0,0,1,159.99999999994168,725) translate(0 36)"/><use xlink:href="#u" transform="matrix(1,0,0,1,159.99999999994168,725) translate(59.95 36)"/><use xlink:href="#m" transform="matrix(1,0,0,1,159.99999999994168,725) translate(0 57.6)"/><use xlink:href="#v" transform="matrix(1,0,0,1,159.99999999994168,725) translate(44 57.6)"/><use xlink:href="#o" transform="matrix(1,0,0,1,159.99999999994168,725) translate(0 79.20000000000002)"/><use xlink:href="#p" transform="matrix(1,0,0,1,159.99999999994168,725) translate(118.60000000000001 79.20000000000002)"/><use xlink:href="#q" transform="matrix(1,0,0,1,159.99999999994168,725) translate(0 100.80000000000001)"/></g><path d="M155 460h245v60H155z" stroke="#000" stroke-width="2" fill-opacity="0"/><g><use xlink:href="#r" transform="matrix(1,0,0,1,159.99999999994168,465) translate(0 14.4)"/><use xlink:href="#w" transform="matrix(1,0,0,1,159.99999999994168,465) translate(0 36)"/><use xlink:href="#t" transform="matrix(1,0,0,1,159.99999999994168,465) translate(0 57.6)"/></g><path d="M946 460h245v60H946z" stroke="#000" stroke-width="2" fill-opacity="0"/><g><use xlink:href="#j" transform="matrix(1,0,0,1,951,465) translate(0 14.4)"/><use xlink:href="#w" transform="matrix(1,0,0,1,951,465) translate(0 36)"/><use xlink:href="#t" transform="matrix(1,0,0,1,951,465) translate(0 57.6)"/></g><path d="M944.96 720h260v120h-260z" stroke="#000" stroke-width="2" fill-opacity="0"/><g><use xlink:href="#j" transform="matrix(1,0,0,1,949.9625110639554,725) translate(0 14.4)"/><use xlink:href="#k" transform="matrix(1,0,0,1,949.9625110639554,725) translate(0 36)"/><use xlink:href="#u" transform="matrix(1,0,0,1,949.9625110639554,725) translate(59.95 36)"/><use xlink:href="#m" transform="matrix(1,0,0,1,949.9625110639554,725) translate(0 57.6)"/><use xlink:href="#x" transform="matrix(1,0,0,1,949.9625110639554,725) translate(44 57.6)"/><use xlink:href="#o" transform="matrix(1,0,0,1,949.9625110639554,725) translate(0 79.20000000000002)"/><use xlink:href="#y" transform="matrix(1,0,0,1,949.9625110639554,725) translate(118.60000000000001 79.20000000000002)"/><use xlink:href="#z" transform="matrix(1,0,0,1,949.9625110639554,725) translate(0 100.80000000000001)"/></g><path d="M604.62 627.25c1.87-4 6.96-7.25 11.38-7.25h68c4.42 0 9.5 3.25 11.38 7.25l21.24 45.5c1.87 4 1.87 10.5 0 14.5l-21.24 45.5c-1.87 4-6.96 7.25-11.38 7.25h-68c-4.42 0-9.5-3.25-11.38-7.25l-21.24-45.5c-1.87-4-1.87-10.5 0-14.5z" stroke="#333" stroke-width="3" fill="#dedfff"/><g><use xlink:href="#A" transform="matrix(1,0,0,1,584.8,624.8) translate(41.324074074074076 57.269444444444446)"/></g><defs><path fill="#fff" d="M33 0v-248h34V0H33" id="B"/><path fill="#fff" d="M117-194c89-4 53 116 60 194h-32v-121c0-31-8-49-39-48C34-167 62-67 57 0H25l-1-190h30c1 10-1 24 2 32 11-22 29-35 61-36" id="C"/><path fill="#fff" d="M30 0v-248h33v221h125V0H30" id="D"/><path fill="#fff" d="M100-194c62-1 85 37 85 99 1 63-27 99-86 99S16-35 15-95c0-66 28-99 85-99zM99-20c44 1 53-31 53-75 0-43-8-75-51-75s-53 32-53 75 10 74 51 75" id="E"/><path fill="#fff" d="M177-190C167-65 218 103 67 71c-23-6-38-20-44-43l32-5c15 47 100 32 89-28v-30C133-14 115 1 83 1 29 1 15-40 15-95c0-56 16-97 71-98 29-1 48 16 59 35 1-10 0-23 2-32h30zM94-22c36 0 50-32 50-73 0-42-14-75-50-75-39 0-46 34-46 75s6 73 46 73" id="F"/><path fill="#fff" d="M96-169c-40 0-48 33-48 73s9 75 48 75c24 0 41-14 43-38l32 2c-6 37-31 61-74 61-59 0-76-41-82-99-10-93 101-131 147-64 4 7 5 14 7 22l-32 3c-4-21-16-35-41-35" id="G"/><path fill="#fff" d="M141-36C126-15 110 5 73 4 37 3 15-17 15-53c-1-64 63-63 125-63 3-35-9-54-41-54-24 1-41 7-42 31l-33-3c5-37 33-52 76-52 45 0 72 20 72 64v82c-1 20 7 32 28 27v20c-31 9-61-2-59-35zM48-53c0 20 12 33 32 33 41-3 63-29 60-74-43 2-92-5-92 41" id="H"/><path fill="#fff" d="M24 0v-261h32V0H24" id="I"/><g id="a"><use transform="matrix(0.04320987654320988,0,0,0.04320987654320988,0,0)" xlink:href="#B"/><use transform="matrix(0.04320987654320988,0,0,0.04320987654320988,4.320987654320988,0)" xlink:href="#C"/><use transform="matrix(0.04320987654320988,0,0,0.04320987654320988,12.962962962962964,0)" xlink:href="#D"/><use transform="matrix(0.04320987654320988,0,0,0.04320987654320988,21.604938271604944,0)" xlink:href="#E"/><use transform="matrix(0.04320987654320988,0,0,0.04320987654320988,30.24691358024692,0)" xlink:href="#F"/><use transform="matrix(0.04320987654320988,0,0,0.04320987654320988,38.88888888888889,0)" xlink:href="#D"/><use transform="matrix(0.04320987654320988,0,0,0.04320987654320988,47.53086419753087,0)" xlink:href="#E"/><use transform="matrix(0.04320987654320988,0,0,0.04320987654320988,56.17283950617284,0)" xlink:href="#G"/><use transform="matrix(0.04320987654320988,0,0,0.04320987654320988,63.95061728395062,0)" xlink:href="#H"/><use transform="matrix(0.04320987654320988,0,0,0.04320987654320988,72.5925925925926,0)" xlink:href="#I"/></g><path fill="#666" d="M27 0v-27h64v-190l-56 39v-29l58-41h29v221h61V0H27" id="J"/><use transform="matrix(0.04320987654320988,0,0,0.04320987654320988,0,0)" xlink:href="#J" id="b"/><path fill="#666" d="M185-189c-5-48-123-54-124 2 14 75 158 14 163 119 3 78-121 87-175 55-17-10-28-26-33-46l33-7c5 56 141 63 141-1 0-78-155-14-162-118-5-82 145-84 179-34 5 7 8 16 11 25" id="K"/><path fill="#666" d="M59-47c-2 24 18 29 38 22v24C64 9 27 4 27-40v-127H5v-23h24l9-43h21v43h35v23H59v120" id="L"/><path fill="#666" d="M141-36C126-15 110 5 73 4 37 3 15-17 15-53c-1-64 63-63 125-63 3-35-9-54-41-54-24 1-41 7-42 31l-33-3c5-37 33-52 76-52 45 0 72 20 72 64v82c-1 20 7 32 28 27v20c-31 9-61-2-59-35zM48-53c0 20 12 33 32 33 41-3 63-29 60-74-43 2-92-5-92 41" id="M"/><path fill="#666" d="M100-194c63 0 86 42 84 106H49c0 40 14 67 53 68 26 1 43-12 49-29l28 8c-11 28-37 45-77 45C44 4 14-33 15-96c1-61 26-98 85-98zm52 81c6-60-76-77-97-28-3 7-6 17-6 28h103" id="N"/><path fill="#666" d="M240 0l2-218c-23 76-54 145-80 218h-23L58-218 59 0H30v-248h44l77 211c21-75 51-140 76-211h43V0h-30" id="O"/><path fill="#666" d="M96-169c-40 0-48 33-48 73s9 75 48 75c24 0 41-14 43-38l32 2c-6 37-31 61-74 61-59 0-76-41-82-99-10-93 101-131 147-64 4 7 5 14 7 22l-32 3c-4-21-16-35-41-35" id="P"/><path fill="#666" d="M106-169C34-169 62-67 57 0H25v-261h32l-1 103c12-21 28-36 61-36 89 0 53 116 60 194h-32v-121c2-32-8-49-39-48" id="Q"/><path fill="#666" d="M24-231v-30h32v30H24zM24 0v-190h32V0H24" id="R"/><path fill="#666" d="M117-194c89-4 53 116 60 194h-32v-121c0-31-8-49-39-48C34-167 62-67 57 0H25l-1-190h30c1 10-1 24 2 32 11-22 29-35 61-36" id="S"/><g id="c"><use transform="matrix(0.04320987654320988,0,0,0.04320987654320988,0,0)" xlink:href="#K"/><use transform="matrix(0.04320987654320988,0,0,0.04320987654320988,10.370370370370372,0)" xlink:href="#L"/><use transform="matrix(0.04320987654320988,0,0,0.04320987654320988,14.691358024691363,0)" xlink:href="#M"/><use transform="matrix(0.04320987654320988,0,0,0.04320987654320988,23.333333333333336,0)" xlink:href="#L"/><use transform="matrix(0.04320987654320988,0,0,0.04320987654320988,27.654320987654323,0)" xlink:href="#N"/><use transform="matrix(0.04320987654320988,0,0,0.04320987654320988,36.2962962962963,0)" xlink:href="#O"/><use transform="matrix(0.04320987654320988,0,0,0.04320987654320988,49.21604938271606,0)" xlink:href="#M"/><use transform="matrix(0.04320987654320988,0,0,0.04320987654320988,57.85802469135802,0)" xlink:href="#P"/><use transform="matrix(0.04320987654320988,0,0,0.04320987654320988,65.6358024691358,0)" xlink:href="#Q"/><use transform="matrix(0.04320987654320988,0,0,0.04320987654320988,74.27777777777777,0)" xlink:href="#R"/><use transform="matrix(0.04320987654320988,0,0,0.04320987654320988,77.69135802469135,0)" xlink:href="#S"/><use transform="matrix(0.04320987654320988,0,0,0.04320987654320988,86.33333333333333,0)" xlink:href="#N"/></g><path fill="#fff" d="M140-251c81 0 123 46 123 126C263-46 219 4 140 4 59 4 17-45 17-125s42-126 123-126zm0 227c63 0 89-41 89-101s-29-99-89-99c-61 0-89 39-89 99S79-25 140-24" id="T"/><path fill="#fff" d="M84 4C-5 8 30-112 23-190h32v120c0 31 7 50 39 49 72-2 45-101 50-169h31l1 190h-30c-1-10 1-25-2-33-11 22-28 36-60 37" id="U"/><path fill="#fff" d="M59-47c-2 24 18 29 38 22v24C64 9 27 4 27-40v-127H5v-23h24l9-43h21v43h35v23H59v120" id="V"/><g id="d"><use transform="matrix(0.04320987654320988,0,0,0.04320987654320988,0,0)" xlink:href="#T"/><use transform="matrix(0.04320987654320988,0,0,0.04320987654320988,12.098765432098766,0)" xlink:href="#U"/><use transform="matrix(0.04320987654320988,0,0,0.04320987654320988,20.74074074074074,0)" xlink:href="#V"/><use transform="matrix(0.04320987654320988,0,0,0.04320987654320988,25.061728395061728,0)" xlink:href="#D"/><use transform="matrix(0.04320987654320988,0,0,0.04320987654320988,33.7037037037037,0)" xlink:href="#E"/><use transform="matrix(0.04320987654320988,0,0,0.04320987654320988,42.34567901234568,0)" xlink:href="#F"/><use transform="matrix(0.04320987654320988,0,0,0.04320987654320988,50.98765432098765,0)" xlink:href="#D"/><use transform="matrix(0.04320987654320988,0,0,0.04320987654320988,59.629629629629626,0)" xlink:href="#E"/><use transform="matrix(0.04320987654320988,0,0,0.04320987654320988,68.27160493827161,0)" xlink:href="#G"/><use transform="matrix(0.04320987654320988,0,0,0.04320987654320988,76.0493827160494,0)" xlink:href="#H"/><use transform="matrix(0.04320987654320988,0,0,0.04320987654320988,84.69135802469137,0)" xlink:href="#I"/></g><path fill="#666" d="M140-251c81 0 123 46 123 126C263-46 219 4 140 4 59 4 17-45 17-125s42-126 123-126zm0 227c63 0 89-41 89-101s-29-99-89-99c-61 0-89 39-89 99S79-25 140-24" id="W"/><path fill="#666" d="M16-82v-28h88v28H16" id="X"/><path fill="#666" d="M33 0v-248h34V0H33" id="Y"/><path fill="#666" d="M30-248c118-7 216 8 213 122C240-48 200 0 122 0H30v-248zM63-27c89 8 146-16 146-99s-60-101-146-95v194" id="Z"/><path fill="#666" d="M108 0H70L1-190h34L89-25l56-165h34" id="aa"/><g id="e"><use transform="matrix(0.04320987654320988,0,0,0.04320987654320988,0,0)" xlink:href="#W"/><use transform="matrix(0.04320987654320988,0,0,0.04320987654320988,12.098765432098766,0)" xlink:href="#X"/><use transform="matrix(0.04320987654320988,0,0,0.04320987654320988,17.24074074074074,0)" xlink:href="#Y"/><use transform="matrix(0.04320987654320988,0,0,0.04320987654320988,21.561728395061728,0)" xlink:href="#Z"/><use transform="matrix(0.04320987654320988,0,0,0.04320987654320988,32.75308641975309,0)" xlink:href="#J"/><use transform="matrix(0.04320987654320988,0,0,0.04320987654320988,41.39506172839506,0)" xlink:href="#X"/><use transform="matrix(0.04320987654320988,0,0,0.04320987654320988,46.537037037037045,0)" xlink:href="#aa"/><use transform="matrix(0.04320987654320988,0,0,0.04320987654320988,54.314814814814824,0)" xlink:href="#J"/></g><path fill="#666" d="M101-251c82-7 93 87 43 132L82-64C71-53 59-42 53-27h129V0H18c2-99 128-94 128-182 0-28-16-43-45-43s-46 15-49 41l-32-3c6-41 34-60 81-64" id="ab"/><g id="f"><use transform="matrix(0.04320987654320988,0,0,0.04320987654320988,0,0)" xlink:href="#W"/><use transform="matrix(0.04320987654320988,0,0,0.04320987654320988,12.098765432098766,0)" xlink:href="#X"/><use transform="matrix(0.04320987654320988,0,0,0.04320987654320988,17.24074074074074,0)" xlink:href="#Y"/><use transform="matrix(0.04320987654320988,0,0,0.04320987654320988,21.561728395061728,0)" xlink:href="#Z"/><use transform="matrix(0.04320987654320988,0,0,0.04320987654320988,32.75308641975309,0)" xlink:href="#ab"/><use transform="matrix(0.04320987654320988,0,0,0.04320987654320988,41.39506172839506,0)" xlink:href="#X"/><use transform="matrix(0.04320987654320988,0,0,0.04320987654320988,46.537037037037045,0)" xlink:href="#aa"/><use transform="matrix(0.04320987654320988,0,0,0.04320987654320988,54.314814814814824,0)" xlink:href="#ab"/></g><use transform="matrix(0.04320987654320988,0,0,0.04320987654320988,0,0)" xlink:href="#S" id="g"/><path fill="#666" d="M85-194c31 0 48 13 60 33l-1-100h32l1 261h-30c-2-10 0-23-3-31C134-8 116 4 85 4 32 4 16-35 15-94c0-66 23-100 70-100zm9 24c-40 0-46 34-46 75 0 40 6 74 45 74 42 0 51-32 51-76 0-42-9-74-50-73" id="ac"/><path fill="#666" d="M101-234c-31-9-42 10-38 44h38v23H63V0H32v-167H5v-23h27c-7-52 17-82 69-68v24" id="ad"/><path fill="#666" d="M233-177c-1 41-23 64-60 70L243 0h-38l-65-103H63V0H30v-248c88 3 205-21 203 71zM63-129c60-2 137 13 137-47 0-61-80-42-137-45v92" id="ae"/><path fill="#666" d="M84 4C-5 8 30-112 23-190h32v120c0 31 7 50 39 49 72-2 45-101 50-169h31l1 190h-30c-1-10 1-25-2-33-11 22-28 36-60 37" id="af"/><path fill="#666" d="M24 0v-261h32V0H24" id="ag"/><path fill="#666" d="M135-143c-3-34-86-38-87 0 15 53 115 12 119 90S17 21 10-45l28-5c4 36 97 45 98 0-10-56-113-15-118-90-4-57 82-63 122-42 12 7 21 19 24 35" id="ah"/><g id="h"><use transform="matrix(0.04320987654320988,0,0,0.04320987654320988,0,0)" xlink:href="#O"/><use transform="matrix(0.04320987654320988,0,0,0.04320987654320988,12.919753086419755,0)" xlink:href="#R"/><use transform="matrix(0.04320987654320988,0,0,0.04320987654320988,16.333333333333336,0)" xlink:href="#ac"/><use transform="matrix(0.04320987654320988,0,0,0.04320987654320988,24.97530864197531,0)" xlink:href="#W"/><use transform="matrix(0.04320987654320988,0,0,0.04320987654320988,37.074074074074076,0)" xlink:href="#ad"/><use transform="matrix(0.04320987654320988,0,0,0.04320987654320988,41.092592592592595,0)" xlink:href="#ad"/><use transform="matrix(0.04320987654320988,0,0,0.04320987654320988,45.41358024691358,0)" xlink:href="#ae"/><use transform="matrix(0.04320987654320988,0,0,0.04320987654320988,56.604938271604944,0)" xlink:href="#af"/><use transform="matrix(0.04320987654320988,0,0,0.04320987654320988,65.24691358024693,0)" xlink:href="#ag"/><use transform="matrix(0.04320987654320988,0,0,0.04320987654320988,68.66049382716051,0)" xlink:href="#N"/><use transform="matrix(0.04320987654320988,0,0,0.04320987654320988,77.30246913580248,0)" xlink:href="#ah"/></g><path fill="#666" d="M63-220v92h138v28H63V0H30v-248h175v28H63" id="ai"/><g id="i"><use transform="matrix(0.04320987654320988,0,0,0.04320987654320988,0,0)" xlink:href="#ai"/><use transform="matrix(0.04320987654320988,0,0,0.04320987654320988,9.462962962962964,0)" xlink:href="#X"/><use transform="matrix(0.04320987654320988,0,0,0.04320987654320988,14.60493827160494,0)" xlink:href="#Y"/><use transform="matrix(0.04320987654320988,0,0,0.04320987654320988,18.925925925925927,0)" xlink:href="#Z"/><use transform="matrix(0.04320987654320988,0,0,0.04320987654320988,30.11728395061729,0)" xlink:href="#J"/><use transform="matrix(0.04320987654320988,0,0,0.04320987654320988,38.75925925925926,0)" xlink:href="#X"/><use transform="matrix(0.04320987654320988,0,0,0.04320987654320988,43.901234567901234,0)" xlink:href="#aa"/><use transform="matrix(0.04320987654320988,0,0,0.04320987654320988,51.679012345679006,0)" xlink:href="#ab"/></g><path d="M140-251c80 0 125 45 125 126S219 4 139 4C58 4 15-44 15-125s44-126 125-126zm-1 214c52 0 73-35 73-88 0-50-21-86-72-86-52 0-73 35-73 86s22 88 72 88" id="aj"/><path d="M85 4C-2 5 27-109 22-190h50c7 57-23 150 33 157 60-5 35-97 40-157h50l1 190h-47c-2-12 1-28-3-38-12 25-28 42-61 42" id="ak"/><path d="M115-3C79 11 28 4 28-45v-112H4v-33h27l15-45h31v45h36v33H77v99c-1 23 16 31 38 25v30" id="al"/><path d="M135-194c53 0 70 44 70 98 0 56-19 98-73 100-31 1-45-17-59-34 3 33 2 69 2 105H25l-1-265h48c2 10 0 23 3 31 11-24 29-35 60-35zM114-30c33 0 39-31 40-66 0-38-9-64-40-64-56 0-55 130 0 130" id="am"/><g id="j"><use transform="matrix(0.05,0,0,0.05,0,0)" xlink:href="#aj"/><use transform="matrix(0.05,0,0,0.05,14,0)" xlink:href="#ak"/><use transform="matrix(0.05,0,0,0.05,24.950000000000003,0)" xlink:href="#al"/><use transform="matrix(0.05,0,0,0.05,30.900000000000002,0)" xlink:href="#am"/><use transform="matrix(0.05,0,0,0.05,41.85,0)" xlink:href="#ak"/><use transform="matrix(0.05,0,0,0.05,52.800000000000004,0)" xlink:href="#al"/></g><path d="M185-189c-5-48-123-54-124 2 14 75 158 14 163 119 3 78-121 87-175 55-17-10-28-26-33-46l33-7c5 56 141 63 141-1 0-78-155-14-162-118-5-82 145-84 179-34 5 7 8 16 11 25" id="an"/><path d="M100-194c63 0 86 42 84 106H49c0 40 14 67 53 68 26 1 43-12 49-29l28 8c-11 28-37 45-77 45C44 4 14-33 15-96c1-61 26-98 85-98zm52 81c6-60-76-77-97-28-3 7-6 17-6 28h103" id="ao"/><path d="M145-31C134-9 116 4 85 4 32 4 16-35 15-94c0-59 17-99 70-100 32-1 48 14 60 33 0-11-1-24 2-32h30l-1 268h-32zM93-21c41 0 51-33 51-76s-8-73-50-73c-40 0-46 35-46 75s5 74 45 74" id="ap"/><path d="M190 0L58-211 59 0H30v-248h39L202-35l-2-213h31V0h-41" id="aq"/><path d="M100-194c62-1 85 37 85 99 1 63-27 99-86 99S16-35 15-95c0-66 28-99 85-99zM99-20c44 1 53-31 53-75 0-43-8-75-51-75s-53 32-53 75 10 74 51 75" id="ar"/><g id="k"><use transform="matrix(0.05,0,0,0.05,0,0)" xlink:href="#an"/><use transform="matrix(0.05,0,0,0.05,12,0)" xlink:href="#ao"/><use transform="matrix(0.05,0,0,0.05,22,0)" xlink:href="#ap"/><use transform="matrix(0.05,0,0,0.05,32,0)" xlink:href="#aq"/><use transform="matrix(0.05,0,0,0.05,44.95,0)" xlink:href="#ar"/></g><path d="M134-131c28 9 52 24 51 62-1 50-34 73-85 73S17-19 16-69c0-36 21-54 49-61-75-25-45-126 34-121 46 3 78 18 79 63 0 33-17 51-44 57zm-34-11c31 1 46-15 46-44 0-28-17-43-47-42-29 0-46 13-45 42 1 28 16 44 46 44zm1 122c35 0 51-18 51-52 0-30-18-46-53-46-33 0-51 17-51 47 0 34 19 51 53 51" id="as"/><path d="M64 0c3-98 48-159 88-221H18v-27h164v26C143-157 98-101 97 0H64" id="at"/><g id="l"><use transform="matrix(0.05,0,0,0.05,0,0)" xlink:href="#as"/><use transform="matrix(0.05,0,0,0.05,10,0)" xlink:href="#at"/></g><path d="M59-47c-2 24 18 29 38 22v24C64 9 27 4 27-40v-127H5v-23h24l9-43h21v43h35v23H59v120" id="au"/><path d="M179-190L93 31C79 59 56 82 12 73V49c39 6 53-20 64-50L1-190h34L92-34l54-156h33" id="av"/><path d="M115-194c55 1 70 41 70 98S169 2 115 4C84 4 66-9 55-30l1 105H24l-1-265h31l2 30c10-21 28-34 59-34zm-8 174c40 0 45-34 45-75s-6-73-45-74c-42 0-51 32-51 76 0 43 10 73 51 73" id="aw"/><path d="M33-154v-36h34v36H33zM33 0v-36h34V0H33" id="ax"/><g id="m"><use transform="matrix(0.05,0,0,0.05,0,0)" xlink:href="#au"/><use transform="matrix(0.05,0,0,0.05,5,0)" xlink:href="#av"/><use transform="matrix(0.05,0,0,0.05,14,0)" xlink:href="#aw"/><use transform="matrix(0.05,0,0,0.05,24,0)" xlink:href="#ao"/><use transform="matrix(0.05,0,0,0.05,34,0)" xlink:href="#ax"/></g><path d="M63-220v92h138v28H63V0H30v-248h175v28H63" id="ay"/><path d="M24-231v-30h32v30H24zM24 0v-190h32V0H24" id="az"/><path d="M24 0v-261h32V0H24" id="aA"/><path d="M212-179c-10-28-35-45-73-45-59 0-87 40-87 99 0 60 29 101 89 101 43 0 62-24 78-52l27 14C228-24 195 4 139 4 59 4 22-46 18-125c-6-104 99-153 187-111 19 9 31 26 39 46" id="aB"/><path d="M114-163C36-179 61-72 57 0H25l-1-190h30c1 12-1 29 2 39 6-27 23-49 58-41v29" id="aC"/><path d="M141-36C126-15 110 5 73 4 37 3 15-17 15-53c-1-64 63-63 125-63 3-35-9-54-41-54-24 1-41 7-42 31l-33-3c5-37 33-52 76-52 45 0 72 20 72 64v82c-1 20 7 32 28 27v20c-31 9-61-2-59-35zM48-53c0 20 12 33 32 33 41-3 63-29 60-74-43 2-92-5-92 41" id="aD"/><path d="M85-194c31 0 48 13 60 33l-1-100h32l1 261h-30c-2-10 0-23-3-31C134-8 116 4 85 4 32 4 16-35 15-94c0-66 23-100 70-100zm9 24c-40 0-46 34-46 75 0 40 6 74 45 74 42 0 51-32 51-76 0-42-9-74-50-73" id="aE"/><g id="n"><use transform="matrix(0.05,0,0,0.05,0,0)" xlink:href="#ay"/><use transform="matrix(0.05,0,0,0.05,10.950000000000001,0)" xlink:href="#az"/><use transform="matrix(0.05,0,0,0.05,14.9,0)" xlink:href="#aA"/><use transform="matrix(0.05,0,0,0.05,18.85,0)" xlink:href="#aA"/><use transform="matrix(0.05,0,0,0.05,22.8,0)" xlink:href="#aB"/><use transform="matrix(0.05,0,0,0.05,35.75,0)" xlink:href="#aC"/><use transform="matrix(0.05,0,0,0.05,41.7,0)" xlink:href="#ao"/><use transform="matrix(0.05,0,0,0.05,51.7,0)" xlink:href="#aD"/><use transform="matrix(0.05,0,0,0.05,61.7,0)" xlink:href="#au"/><use transform="matrix(0.05,0,0,0.05,66.7,0)" xlink:href="#ao"/><use transform="matrix(0.05,0,0,0.05,76.7,0)" xlink:href="#aE"/></g><path d="M101-234c-31-9-42 10-38 44h38v23H63V0H32v-167H5v-23h27c-7-52 17-82 69-68v24" id="aF"/><path d="M96-169c-40 0-48 33-48 73s9 75 48 75c24 0 41-14 43-38l32 2c-6 37-31 61-74 61-59 0-76-41-82-99-10-93 101-131 147-64 4 7 5 14 7 22l-32 3c-4-21-16-35-41-35" id="aG"/><path d="M30 0v-248h187v28H63v79h144v27H63v87h162V0H30" id="aH"/><path d="M117-194c89-4 53 116 60 194h-32v-121c0-31-8-49-39-48C34-167 62-67 57 0H25l-1-190h30c1 10-1 24 2 32 11-22 29-35 61-36" id="aI"/><g id="o"><use transform="matrix(0.05,0,0,0.05,0,0)" xlink:href="#aD"/><use transform="matrix(0.05,0,0,0.05,10,0)" xlink:href="#aF"/><use transform="matrix(0.05,0,0,0.05,14.65,0)" xlink:href="#aF"/><use transform="matrix(0.05,0,0,0.05,19.65,0)" xlink:href="#ao"/><use transform="matrix(0.05,0,0,0.05,29.649999999999995,0)" xlink:href="#aG"/><use transform="matrix(0.05,0,0,0.05,38.65,0)" xlink:href="#au"/><use transform="matrix(0.05,0,0,0.05,43.65,0)" xlink:href="#ao"/><use transform="matrix(0.05,0,0,0.05,53.650000000000006,0)" xlink:href="#aE"/><use transform="matrix(0.05,0,0,0.05,63.650000000000006,0)" xlink:href="#aH"/><use transform="matrix(0.05,0,0,0.05,75.65,0)" xlink:href="#aI"/><use transform="matrix(0.05,0,0,0.05,85.65,0)" xlink:href="#au"/><use transform="matrix(0.05,0,0,0.05,90.65,0)" xlink:href="#az"/><use transform="matrix(0.05,0,0,0.05,94.60000000000001,0)" xlink:href="#au"/><use transform="matrix(0.05,0,0,0.05,99.60000000000001,0)" xlink:href="#av"/><use transform="matrix(0.05,0,0,0.05,108.60000000000001,0)" xlink:href="#ax"/></g><path d="M16-82v-28h88v28H16" id="aJ"/><path d="M33 0v-248h34V0H33" id="aK"/><path d="M30-248c118-7 216 8 213 122C240-48 200 0 122 0H30v-248zM63-27c89 8 146-16 146-99s-60-101-146-95v194" id="aL"/><path d="M27 0v-27h64v-190l-56 39v-29l58-41h29v221h61V0H27" id="aM"/><path d="M108 0H70L1-190h34L89-25l56-165h34" id="aN"/><g id="p"><use transform="matrix(0.05,0,0,0.05,0,0)" xlink:href="#ay"/><use transform="matrix(0.05,0,0,0.05,10.950000000000001,0)" xlink:href="#aJ"/><use transform="matrix(0.05,0,0,0.05,16.900000000000002,0)" xlink:href="#aK"/><use transform="matrix(0.05,0,0,0.05,21.900000000000002,0)" xlink:href="#aL"/><use transform="matrix(0.05,0,0,0.05,34.85,0)" xlink:href="#aM"/><use transform="matrix(0.05,0,0,0.05,44.85,0)" xlink:href="#aJ"/><use transform="matrix(0.05,0,0,0.05,50.800000000000004,0)" xlink:href="#aN"/><use transform="matrix(0.05,0,0,0.05,59.800000000000004,0)" xlink:href="#aM"/></g><path d="M158-156l-14 65h45v19h-49L124 0h-19l15-72H56L41 0H22l15-72H2v-19h39l14-65H11v-19h48l15-71h20l-16 71h64l16-71h19l-16 71h37v19h-40zm-83 0L61-91h63l14-65H75" id="aO"/><path d="M140-251c81 0 123 46 123 126C263-46 219 4 140 4 59 4 17-45 17-125s42-126 123-126zm0 227c63 0 89-41 89-101s-29-99-89-99c-61 0-89 39-89 99S79-25 140-24" id="aP"/><path d="M118-107v75H92v-75H18v-26h74v-75h26v75h74v26h-74" id="aQ"/><path d="M101-251c82-7 93 87 43 132L82-64C71-53 59-42 53-27h129V0H18c2-99 128-94 128-182 0-28-16-43-45-43s-46 15-49 41l-32-3c6-41 34-60 81-64" id="aR"/><g id="q"><use transform="matrix(0.05,0,0,0.05,0,0)" xlink:href="#aO"/><use transform="matrix(0.05,0,0,0.05,10,0)" xlink:href="#aP"/><use transform="matrix(0.05,0,0,0.05,24,0)" xlink:href="#aJ"/><use transform="matrix(0.05,0,0,0.05,29.950000000000003,0)" xlink:href="#aK"/><use transform="matrix(0.05,0,0,0.05,34.95,0)" xlink:href="#aL"/><use transform="matrix(0.05,0,0,0.05,47.900000000000006,0)" xlink:href="#aJ"/><use transform="matrix(0.05,0,0,0.05,53.85,0)" xlink:href="#aN"/><use transform="matrix(0.05,0,0,0.05,62.85,0)" xlink:href="#aM"/><use transform="matrix(0.05,0,0,0.05,72.85000000000001,0)" xlink:href="#aQ"/><use transform="matrix(0.05,0,0,0.05,83.35000000000001,0)" xlink:href="#aP"/><use transform="matrix(0.05,0,0,0.05,97.35000000000001,0)" xlink:href="#aJ"/><use transform="matrix(0.05,0,0,0.05,103.30000000000001,0)" xlink:href="#aK"/><use transform="matrix(0.05,0,0,0.05,108.30000000000001,0)" xlink:href="#aL"/><use transform="matrix(0.05,0,0,0.05,121.25,0)" xlink:href="#aR"/><use transform="matrix(0.05,0,0,0.05,131.25,0)" xlink:href="#aJ"/><use transform="matrix(0.05,0,0,0.05,137.2,0)" xlink:href="#aN"/><use transform="matrix(0.05,0,0,0.05,146.2,0)" xlink:href="#aM"/><use transform="matrix(0.05,0,0,0.05,156.2,0)" xlink:href="#aQ"/><use transform="matrix(0.05,0,0,0.05,166.7,0)" xlink:href="#ay"/><use transform="matrix(0.05,0,0,0.05,177.64999999999998,0)" xlink:href="#aJ"/><use transform="matrix(0.05,0,0,0.05,183.59999999999997,0)" xlink:href="#aK"/><use transform="matrix(0.05,0,0,0.05,188.59999999999997,0)" xlink:href="#aL"/><use transform="matrix(0.05,0,0,0.05,201.54999999999995,0)" xlink:href="#aM"/><use transform="matrix(0.05,0,0,0.05,211.54999999999995,0)" xlink:href="#aJ"/><use transform="matrix(0.05,0,0,0.05,217.49999999999991,0)" xlink:href="#aN"/><use transform="matrix(0.05,0,0,0.05,226.49999999999991,0)" xlink:href="#aM"/></g><path d="M24 0v-248h52V0H24" id="aS"/><path d="M135-194c87-1 58 113 63 194h-50c-7-57 23-157-34-157-59 0-34 97-39 157H25l-1-190h47c2 12-1 28 3 38 12-26 28-41 61-42" id="aT"/><g id="r"><use transform="matrix(0.05,0,0,0.05,0,0)" xlink:href="#aS"/><use transform="matrix(0.05,0,0,0.05,5,0)" xlink:href="#aT"/><use transform="matrix(0.05,0,0,0.05,15.950000000000001,0)" xlink:href="#am"/><use transform="matrix(0.05,0,0,0.05,26.900000000000002,0)" xlink:href="#ak"/><use transform="matrix(0.05,0,0,0.05,37.85,0)" xlink:href="#al"/></g><g id="s"><use transform="matrix(0.05,0,0,0.05,0,0)" xlink:href="#aB"/><use transform="matrix(0.05,0,0,0.05,12.950000000000001,0)" xlink:href="#aC"/><use transform="matrix(0.05,0,0,0.05,18.900000000000002,0)" xlink:href="#ao"/><use transform="matrix(0.05,0,0,0.05,28.900000000000002,0)" xlink:href="#aD"/><use transform="matrix(0.05,0,0,0.05,38.900000000000006,0)" xlink:href="#au"/><use transform="matrix(0.05,0,0,0.05,43.900000000000006,0)" xlink:href="#ao"/><use transform="matrix(0.05,0,0,0.05,53.900000000000006,0)" xlink:href="#ay"/><use transform="matrix(0.05,0,0,0.05,64.85000000000001,0)" xlink:href="#az"/><use transform="matrix(0.05,0,0,0.05,68.80000000000001,0)" xlink:href="#aA"/><use transform="matrix(0.05,0,0,0.05,72.75000000000001,0)" xlink:href="#aA"/></g><g id="u"><use transform="matrix(0.05,0,0,0.05,0,0)" xlink:href="#as"/><use transform="matrix(0.05,0,0,0.05,10,0)" xlink:href="#as"/></g><path d="M137 0h-34L2-248h35l83 218 83-218h36" id="aU"/><g id="v"><use transform="matrix(0.05,0,0,0.05,0,0)" xlink:href="#ay"/><use transform="matrix(0.05,0,0,0.05,10.950000000000001,0)" xlink:href="#az"/><use transform="matrix(0.05,0,0,0.05,14.9,0)" xlink:href="#aA"/><use transform="matrix(0.05,0,0,0.05,18.85,0)" xlink:href="#aA"/><use transform="matrix(0.05,0,0,0.05,22.8,0)" xlink:href="#aU"/><use transform="matrix(0.05,0,0,0.05,33.45,0)" xlink:href="#aD"/><use transform="matrix(0.05,0,0,0.05,43.45,0)" xlink:href="#aA"/><use transform="matrix(0.05,0,0,0.05,47.400000000000006,0)" xlink:href="#az"/><use transform="matrix(0.05,0,0,0.05,51.35,0)" xlink:href="#aE"/><use transform="matrix(0.05,0,0,0.05,61.35,0)" xlink:href="#aD"/><use transform="matrix(0.05,0,0,0.05,71.35000000000001,0)" xlink:href="#au"/><use transform="matrix(0.05,0,0,0.05,76.35000000000001,0)" xlink:href="#ao"/><use transform="matrix(0.05,0,0,0.05,86.35000000000001,0)" xlink:href="#aE"/></g><path d="M33 0v-38h34V0H33" id="aV"/><g id="w"><use transform="matrix(0.05,0,0,0.05,0,0)" xlink:href="#aV"/><use transform="matrix(0.05,0,0,0.05,5,0)" xlink:href="#aV"/><use transform="matrix(0.05,0,0,0.05,10,0)" xlink:href="#aV"/></g><path d="M205 0l-28-72H64L36 0H1l101-248h38L239 0h-34zm-38-99l-47-123c-12 45-31 82-46 123h93" id="aW"/><g id="x"><use transform="matrix(0.05,0,0,0.05,0,0)" xlink:href="#ay"/><use transform="matrix(0.05,0,0,0.05,10.950000000000001,0)" xlink:href="#az"/><use transform="matrix(0.05,0,0,0.05,14.9,0)" xlink:href="#aA"/><use transform="matrix(0.05,0,0,0.05,18.85,0)" xlink:href="#aA"/><use transform="matrix(0.05,0,0,0.05,22.8,0)" xlink:href="#aW"/><use transform="matrix(0.05,0,0,0.05,34.8,0)" xlink:href="#aA"/><use transform="matrix(0.05,0,0,0.05,38.75,0)" xlink:href="#aA"/><use transform="matrix(0.05,0,0,0.05,42.7,0)" xlink:href="#ar"/><use transform="matrix(0.05,0,0,0.05,52.7,0)" xlink:href="#aG"/><use transform="matrix(0.05,0,0,0.05,61.7,0)" xlink:href="#aD"/><use transform="matrix(0.05,0,0,0.05,71.7,0)" xlink:href="#au"/><use transform="matrix(0.05,0,0,0.05,76.7,0)" xlink:href="#ao"/><use transform="matrix(0.05,0,0,0.05,86.7,0)" xlink:href="#aE"/></g><g id="y"><use transform="matrix(0.05,0,0,0.05,0,0)" xlink:href="#ay"/><use transform="matrix(0.05,0,0,0.05,10.950000000000001,0)" xlink:href="#aJ"/><use transform="matrix(0.05,0,0,0.05,16.900000000000002,0)" xlink:href="#aK"/><use transform="matrix(0.05,0,0,0.05,21.900000000000002,0)" xlink:href="#aL"/><use transform="matrix(0.05,0,0,0.05,34.85,0)" xlink:href="#aM"/><use transform="matrix(0.05,0,0,0.05,44.85,0)" xlink:href="#aJ"/><use transform="matrix(0.05,0,0,0.05,50.800000000000004,0)" xlink:href="#aN"/><use transform="matrix(0.05,0,0,0.05,59.800000000000004,0)" xlink:href="#aR"/></g><g id="z"><use transform="matrix(0.05,0,0,0.05,0,0)" xlink:href="#aO"/><use transform="matrix(0.05,0,0,0.05,10,0)" xlink:href="#aP"/><use transform="matrix(0.05,0,0,0.05,24,0)" xlink:href="#aJ"/><use transform="matrix(0.05,0,0,0.05,29.950000000000003,0)" xlink:href="#aK"/><use transform="matrix(0.05,0,0,0.05,34.95,0)" xlink:href="#aL"/><use transform="matrix(0.05,0,0,0.05,47.900000000000006,0)" xlink:href="#aJ"/><use transform="matrix(0.05,0,0,0.05,53.85,0)" xlink:href="#aN"/><use transform="matrix(0.05,0,0,0.05,62.85,0)" xlink:href="#aM"/><use transform="matrix(0.05,0,0,0.05,72.85000000000001,0)" xlink:href="#aQ"/><use transform="matrix(0.05,0,0,0.05,83.35000000000001,0)" xlink:href="#aP"/><use transform="matrix(0.05,0,0,0.05,97.35000000000001,0)" xlink:href="#aJ"/><use transform="matrix(0.05,0,0,0.05,103.30000000000001,0)" xlink:href="#aK"/><use transform="matrix(0.05,0,0,0.05,108.30000000000001,0)" xlink:href="#aL"/><use transform="matrix(0.05,0,0,0.05,121.25,0)" xlink:href="#aR"/><use transform="matrix(0.05,0,0,0.05,131.25,0)" xlink:href="#aJ"/><use transform="matrix(0.05,0,0,0.05,137.2,0)" xlink:href="#aN"/><use transform="matrix(0.05,0,0,0.05,146.2,0)" xlink:href="#aR"/><use transform="matrix(0.05,0,0,0.05,156.2,0)" xlink:href="#aQ"/><use transform="matrix(0.05,0,0,0.05,166.7,0)" xlink:href="#ay"/><use transform="matrix(0.05,0,0,0.05,177.64999999999998,0)" xlink:href="#aJ"/><use transform="matrix(0.05,0,0,0.05,183.59999999999997,0)" xlink:href="#aK"/><use transform="matrix(0.05,0,0,0.05,188.59999999999997,0)" xlink:href="#aL"/><use transform="matrix(0.05,0,0,0.05,201.54999999999995,0)" xlink:href="#aM"/><use transform="matrix(0.05,0,0,0.05,211.54999999999995,0)" xlink:href="#aJ"/><use transform="matrix(0.05,0,0,0.05,217.49999999999991,0)" xlink:href="#aN"/><use transform="matrix(0.05,0,0,0.05,226.49999999999991,0)" xlink:href="#aR"/></g><path fill="#666" d="M143 4C61 4 22-44 18-125c-5-107 100-154 193-111 17 8 29 25 37 43l-32 9c-13-25-37-40-76-40-61 0-88 39-88 99 0 61 29 100 91 101 35 0 62-11 79-27v-45h-74v-28h105v86C228-13 192 4 143 4" id="aX"/><path fill="#666" d="M206 0h-36l-40-164L89 0H53L-1-190h32L70-26l43-164h34l41 164 42-164h31" id="aY"/><g id="A"><use transform="matrix(0.04320987654320988,0,0,0.04320987654320988,0,0)" xlink:href="#W"/><use transform="matrix(0.04320987654320988,0,0,0.04320987654320988,12.098765432098766,0)" xlink:href="#af"/><use transform="matrix(0.04320987654320988,0,0,0.04320987654320988,20.74074074074074,0)" xlink:href="#L"/><use transform="matrix(0.04320987654320988,0,0,0.04320987654320988,25.061728395061728,0)" xlink:href="#aX"/><use transform="matrix(0.04320987654320988,0,0,0.04320987654320988,37.160493827160494,0)" xlink:href="#aY"/></g></defs></g></svg>